<?xml version="1.0" encoding="UTF-8"?>
<svg id="OBJECTS" xmlns="http://www.w3.org/2000/svg" viewBox="0 0 429.25 335.19">
  <defs>
    <style>
      .cls-1 {
        stroke: #070000;
      }

      .cls-1, .cls-2, .cls-3, .cls-4 {
        fill: none;
        stroke-linecap: round;
        stroke-linejoin: round;
        stroke-width: 1.83px;
      }

      .cls-5 {
        fill: #c1d57e;
      }

      .cls-2 {
        stroke: #7bc9ef;
      }

      .cls-6 {
        fill: #46b17b;
      }

      .cls-3 {
        stroke: #94533f;
      }

      .cls-7 {
        fill: #fbffff;
      }

      .cls-8 {
        fill: #5b6cb1;
      }

      .cls-9 {
        fill: #070000;
      }

      .cls-10 {
        fill: #f8b193;
      }

      .cls-4 {
        stroke: #fbffff;
      }

      .cls-11 {
        fill: #94533f;
      }

      .cls-12 {
        fill: #ef7f7e;
      }
    </style>
  </defs>
  <g>
    <g>
      <path class="cls-8" d="M278.22,231.67s-5.63,36.76-32.58,37.44c0,0-17.58-.23-26.95-20.1,0,0-8.45,16.67-18.73,13.25-10.28-3.43-4.6-39.19,15.53-44.53,0,0,5.33-.15,7.99,4.03l18.71,12.86,4.36-15.95,31.67,12.99Z"/>
      <path class="cls-9" d="M270.64,252.67c5.9-10.05,7.58-20.99,7.58-20.99l-31.67-12.99-1.57,5.73c4.55,6.49,15.61,21.43,25.66,28.25Z"/>
      <path class="cls-11" d="M220.65,252.7c3.08-12.29,10.04-20.52,13.22-23.79l-10.39-7.14c-2.66-4.19-7.99-4.03-7.99-4.03-20.13,5.34-25.81,41.11-15.53,44.53,10.28,3.43,18.73-13.25,18.73-13.25,.62,1.31,1.28,2.53,1.96,3.68Z"/>
      <path class="cls-6" d="M209.1,236.46c3.2-14.16,14.39-14.69,14.39-14.69-2.66-4.19-7.99-4.03-7.99-4.03-20.13,5.34-25.81,41.11-15.53,44.53,10.28,3.43,18.73-13.25,18.73-13.25,1.6-10.05-9.59-12.56-9.59-12.56Z"/>
      <line class="cls-1" x1="242.19" y1="234.63" x2="239.02" y2="244.68"/>
    </g>
    <g>
      <path class="cls-8" d="M298.92,244l4.87,61.81s-1.52,4.87,0,8.07c1.52,3.2,21.77,24.05,33.19,21.01,11.42-3.04-5.79-28.17-5.79-28.17l2.89-62.72h-35.17Z"/>
      <path class="cls-11" d="M331.68,296.22c-11.33,.15-22.69-2.83-29.03-4.84l1.14,14.43s-1.52,4.87,0,8.07c1.52,3.2,21.77,24.05,33.19,21.01,11.42-3.04-5.79-28.17-5.79-28.17l.48-10.5Z"/>
      <path class="cls-6" d="M323.97,304.28c-5.94,.46-7.31,6.85-12.56,5.25-5.25-1.6-7.61-3.73-7.61-3.73,0,0-1.52,4.87,0,8.07,1.52,3.2,21.77,24.05,33.19,21.01,11.42-3.04-5.79-28.17-5.79-28.17,0,0-1.29-2.89-7.23-2.44Z"/>
      <path class="cls-9" d="M333.66,253.32s-18.07,8.06-33.41,7.59l-1.33-16.91h35.17l-.43,9.32Z"/>
    </g>
    <g>
      <path class="cls-6" d="M334.93,33.67s-5.71-29.69,7.08-33.34c14.03-4.01,18.73,29.92,18.73,29.92,0,0,29.46-18.04,36.54-3.65,6.35,12.9-15.3,27.4-30.83,28.32l-31.51-21.24Z"/>
      <path class="cls-9" d="M287.05,62.52s-10.96-21.4,8.22-34.15c19.18-12.75,48.41,.65,59.98,7.96,11.57,7.31,31.95,11.27,31.2,41.41,0,0-1.69,11.56-7.61,21.77,0,0,19.04-3.19,23.61,11.42,4.57,14.62-9.44,16.44-9.44,16.44,0,0,14.62,4.57,9.13,22.53-5.48,17.96-39.58,20.4-64.55,1.83,0,0-15.83,7.92-33.8,2.44-17.96-5.48-18.27-14.92-18.27-14.92,0,0-23.75,10.66-30.14-12.79,0,0-26.49-13.4-18.27-36.23,7.8-21.68,26.34-10.66,26.34-10.66,0,0,1.07-10.12,11.72-11.91,10.66-1.79,14.01,2.17,14.01,2.17l-2.13-7.31Z"/>
    </g>
    <path class="cls-12" d="M341.62,151.74s5.64-22.07-9.32-27.48c-14.96-5.41-52.87-20.25-63.83,4.53-10.96,24.78-32.68,41.09-15.2,56l58.33,14.67s11.55,3.89,18.01-9.35c6.45-13.24,12-38.36,12-38.36Z"/>
    <g>
      <path class="cls-11" d="M251.12,122.05l-42.32-6.55s-3.5-3.65-8.68-5.48-9.91-2.13-12.43-3.96c-2.51-1.83-5.88,4.22,1.48,7.59,0,0-17.24,.86-20.9,4.17-3.65,3.31,0,3.77,0,3.77,0,0-4.05,1.54-4.51,3.88-.46,2.34,5.02,2.34,5.02,2.34,0,0-3.25,1.6-2.51,3.65s5.71,1.66,5.71,1.66c0,0-2.28,4.11,5.71,4.97,7.99,.86,28.03,.29,28.03,.29l40.67,8.34,4.72-24.66Z"/>
      <path class="cls-9" d="M238.21,145.03l8.19,1.68,4.72-24.66-2.45-.38s-7.81,10.38-10.45,23.37Z"/>
      <path class="cls-1" d="M189.17,113.66s3.33,7.33,12.46,7.02"/>
      <line class="cls-1" x1="171.99" y1="133.12" x2="186.57" y2="129.96"/>
      <path class="cls-1" d="M168.79,127.81s7.73-3.18,16.86-3.79"/>
      <path class="cls-1" d="M168.28,121.59s11.89-2.44,16-2.44"/>
      <line class="cls-1" x1="184.28" y1="117.02" x2="187.48" y2="127.84"/>
      <path class="cls-1" d="M191.9,129.96s3.04-4.45,7.92-3.75,5.79,2.53,5.79,2.53"/>
    </g>
    <g>
      <path class="cls-11" d="M353.56,149.91l40.46,14.03s4.8-1.59,10.23-.78c5.43,.81,9.76,2.76,12.83,2.32,3.08-.44,3.22,6.49-4.87,6.01,0,0,14.83,8.83,16.51,13.47,1.68,4.64-1.76,3.33-1.76,3.33,0,0,2.86,3.26,2.17,5.54-.69,2.28-5.54-.28-5.54-.28,0,0,2.13,2.94,.51,4.4s-5.82-1.21-5.82-1.21c0,0,.09,4.7-7.37,1.72-7.46-2.99-24.9-12.87-24.9-12.87l-39.84-11.68,7.38-24Z"/>
      <path class="cls-9" d="M364.82,179.37l-18.63-5.46,7.38-24,12.08,4.19s3.89,11.44-.83,25.27Z"/>
      <path class="cls-1" d="M412.23,171.5s-6.37,4.91-14.3,.37"/>
      <line class="cls-1" x1="418.3" y1="196.74" x2="406.89" y2="187.13"/>
      <path class="cls-1" d="M423.61,193.55s-5.34-6.43-13.13-11.24"/>
      <path class="cls-1" d="M426.98,188.29s-9.37-7.72-13-9.65"/>
      <line class="cls-1" x1="414.97" y1="176.76" x2="407.08" y2="184.82"/>
      <path class="cls-1" d="M402.19,184.63s-.61-5.36-5.24-7.02c-4.63-1.66-6.3-.47-6.3-.47"/>
    </g>
    <g>
      <path class="cls-5" d="M302.96,128.67l-51.84-11.65s-12.79,20.69-6.39,37.73l24.44,7.49s-25.35,34.25-37.22,45.44c0,0,18.95,34.25,59.15,43.39,40.19,9.13,46.13,0,46.13,0l1.37-70.34,16.44,4.57s7.08-6.85,10.05-19.18c1.88-7.8,0-15.53,0-15.53l-39.71-15.69-22.4-6.23Z"/>
      <polygon class="cls-9" points="337.7 226.22 337.95 212.97 321.28 218.11 337.7 226.22"/>
      <path class="cls-9" d="M242.19,196.53c5.84,3.87,21.51,13.3,33.89,11.84l-22.81-25.42c-3.61,4.57-7.45,9.31-11.08,13.58Z"/>
      <path class="cls-6" d="M337.1,139.54s10.16,53.53,5.14,82.53c0,0-17.81,1.14-27.18-3.2,0,0,14.43-66.56,10.3-83.98l11.74,4.64Z"/>
      <path class="cls-6" d="M287.61,125.22s-8.17,27.2-18.45,37.02l-23.52,25.58s17.58,20.78,33.8,24.44c0,0,21.09-61.98,21.28-84.09l-13.1-2.94Z"/>
    </g>
    <g>
      <path class="cls-12" d="M342.87,187.14c-1.52,0-2.87-1.09-3.14-2.63l-8.78-49.04c-.31-1.74,.85-3.4,2.58-3.71,1.74-.31,3.4,.85,3.71,2.58l8.78,49.04c.31,1.74-.85,3.4-2.58,3.71-.19,.03-.38,.05-.57,.05Z"/>
      <path class="cls-12" d="M261.6,170.92c-1.2,0-2.36-.68-2.9-1.84-.75-1.6-.06-3.5,1.54-4.25,28.87-13.49,28.03-41.82,27.98-43.02-.07-1.76,1.29-3.25,3.06-3.33,1.78-.08,3.25,1.28,3.33,3.04,.02,.34,1.16,33.75-31.66,49.1-.44,.2-.9,.3-1.35,.3Z"/>
    </g>
    <g>
      <g>
        <path class="cls-11" d="M333.17,127.53l-7.61,9.36s2.74,18.95-7.76,17.81c-10.5-1.14-17.81-23.06-16.67-28.09l3.4-5.94,28.64,6.85Z"/>
        <path class="cls-9" d="M327.34,126.13l-22.81-5.45-3.4,5.94c-.32,1.41,.02,4.14,.91,7.37,7.38-.44,21.58-2.03,25.29-7.85Z"/>
        <line class="cls-1" x1="325.57" y1="136.89" x2="321.5" y2="144.88"/>
      </g>
      <path class="cls-11" d="M287.05,62.52l-6.39,15.11s-14.62-.42-17.05,15.68,24.66,39.55,57.85,38.03c33.19-1.52,44.46-12.48,44.46-12.48l4.26-12.26-5.48-19.41s-23.45-15.53-24.05-44.46c0,0-17.96,8.83-39.89,6.39l-13.7,13.4Z"/>
      <ellipse class="cls-11" cx="377.88" cy="105.68" rx="18.86" ry="14.38" transform="translate(54.5 327.92) rotate(-50.12)"/>
      <line class="cls-1" x1="386.45" y1="99.51" x2="370.31" y2="106.97"/>
      <path class="cls-1" d="M378.97,102.97s4.18,4.92-1.71,10.09"/>
      <path class="cls-1" d="M296.11,93.83s-6.62-5.35-4.11-9.46,11.65,3.65,11.65,3.65"/>
      <path class="cls-1" d="M299.71,85.2s6.9-5.4,9.64-13.17"/>
      <path class="cls-7" d="M317.8,104.46s-1.03,10.85-8.34,10.73c-7.31-.11-2.49-10.16-2.49-10.16,0,0,6.03,.69,10.83-.58Z"/>
      <path class="cls-1" d="M301.13,103.24s8.45,3.5,16.67,1.22"/>
      <path class="cls-1" d="M321.5,87.54s9.07-3.44,11.67,5.76"/>
      <path class="cls-1" d="M287.47,75.19s8.64-3.84,11.42,4.05"/>
      <line class="cls-1" x1="293.18" y1="61.53" x2="301.13" y2="60.85"/>
      <line class="cls-1" x1="332.3" y1="68.61" x2="338.24" y2="74.25"/>
    </g>
  </g>
  <g>
    <g>
      <path class="cls-8" d="M65.38,166.62c3.2-13.35,10.41-41.1,18.46-56.81,3.25-6.34,9.19-10.85,16.17-12.29,10.48-2.17,28.68-5.57,45.79-1.31,3.83,.95,7.28,3.03,9.94,5.94l6.51,8.16c2.21,2.41,3.04,5.79,2.2,8.95l-13.54,51.17c-1.26,4.75-5.11,8.37-9.93,9.33l-55.29,10.97c-4.72,.94-9.57-.84-12.57-4.61l-4.72-5.93c-3.04-3.82-4.15-8.82-3.01-13.57Z"/>
      <path class="cls-1" d="M79.68,182.2c3.2-13.35,10.24-40.38,18.29-56.09,3.25-6.34,9.19-10.85,16.17-12.29,10.48-2.17,43.62-6.93,49.58-1.38"/>
      <path class="cls-4" d="M89.26,120.21s4.54-12.15,12.32-13.96c7.79-1.8,45.71-4.74,45.71-4.74,0,0,8.05-.63,12.91,5.14"/>
    </g>
    <g>
      <path class="cls-10" d="M173.33,205.73s14.39,13.7,12.1,25.12c-2.28,11.42-15.07,11.65-15.07,11.65,0,0,8.91,10.73-1.37,17.13-9.43,5.87-21.67-10.96-26.57-23.83-.87-2.28-.59-4.83,.72-6.89,1.46-2.29,3.87-5.35,7.58-8.1l22.61-15.07Z"/>
      <path class="cls-9" d="M155.75,232.54s18.84-2.15,27.73-12.92c-3.55-7.61-10.15-13.89-10.15-13.89-21.77,11.72-28.05,20.24-28.05,20.24l10.46,6.58Z"/>
      <path class="cls-12" d="M145.28,225.97c-.87,1.05-1.58,2.05-2.14,2.94-1.31,2.06-1.59,4.61-.72,6.89,4.9,12.86,17.14,29.69,26.57,23.83,10.28-6.39,1.37-17.13,1.37-17.13,0,0-16.6-.64-25.08-16.53Z"/>
      <line class="cls-4" x1="159.76" y1="245.42" x2="170.36" y2="242.5"/>
      <line class="cls-4" x1="162.25" y1="251.75" x2="173.43" y2="248.34"/>
    </g>
    <g>
      <path class="cls-8" d="M159.86,182.21l24.34,27.64s-7.14,21.78-28.45,22.7l-14.46-16.38,5.18,24.97-45.93,4.8s-17.17-29.76-14.2-68.51l73.53,4.8Z"/>
      <path class="cls-9" d="M146.46,241.13c.28,5.96-9.04,12.48-21.59,13.08-12.54,.6-24.06-2.32-24.35-8.28s10.77-12.71,23.32-13.31c12.54-.6,22.33,2.55,22.62,8.51Z"/>
      <path class="cls-9" d="M85.98,191.34c46.47,17.13,73.88-9.13,73.88-9.13l-73.53-4.8c-.6,4.73-.34,13.93-.34,13.93Z"/>
      <path class="cls-1" d="M141.28,216.16s8.22-7,9.44-11.88"/>
    </g>
    <g>
      <path class="cls-10" d="M107.65,237.1l13.62,62.26,29.46-6.17s-6.47-46.78-14.2-59.7c0,0-15.72-4.01-28.88,3.61Z"/>
      <path class="cls-12" d="M136.52,233.49s-15.72-4.01-28.88,3.61l2.42,11.06c2.6-4.27,7.97-8.85,19.12-9.09,3.61-.08,6.95,.03,10.01,.27-.87-2.33-1.76-4.33-2.67-5.85Z"/>
      <path class="cls-7" d="M147.99,276.11c-14.5-5.12-25.76,3.74-30.07,7.96l3.34,15.29,29.46-6.17s-1.02-7.38-2.74-17.09Z"/>
      <path class="cls-12" d="M120.55,296.12s9.23-13.66,20.73-13.66,20.17,4.71,22.23,13.66c2.06,8.95-5.94,22.42-12.79,24.25-6.85,1.83-25.35,3.65-28.32-4.57-2.97-8.22-1.85-19.68-1.85-19.68Z"/>
      <path class="cls-9" d="M150.72,320.37c6.2-1.65,13.34-12.85,13.11-21.6-4.21-8.2-17.14-7.82-26.13-5.57-13.7,3.43-15.3,22.61-15.3,22.61,2.97,8.22,21.47,6.39,28.32,4.57Z"/>
      <line class="cls-4" x1="123.42" y1="310.34" x2="160.53" y2="310.78"/>
    </g>
    <g>
      <path class="cls-10" d="M168.46,146.13l20.47,18.04s7,7.99,7.92,20.63c.45,6.23-8.98,16.59-12.03,15.99-3.04-.61-5.18-4.87-5.18-4.87,0,0-6.09-.68-7.16-3s-1.98-10.85-1.07-13.44l-15.53-11.11s2.45-13.7,12.57-22.23Z"/>
      <path class="cls-1" d="M171.43,179.47s1.07-4.39,2.28-6"/>
      <line class="cls-1" x1="179.65" y1="195.91" x2="181.63" y2="188.76"/>
      <path class="cls-1" d="M179.65,187.39s5.21,1.83,6.03,3.96"/>
    </g>
    <g>
      <path class="cls-8" d="M159.86,162.87s14.78,.9,15.23-21.68c.09-4.54-2.15-12.6-5.96-13.47l-9.36-2.34,.09,37.49Z"/>
      <path class="cls-12" d="M131.54,117.81s-8.5-1.28-21.31,.41c-10.77,1.42-19.79,44.12-19.79,44.12l-4.11,15.07s22.38,18.5,51.84,15.07c0,0,18.76-2.28,21.69-10.28,0,0,11.65-46.02,2.74-56.06l-31.06-8.34Z"/>
    </g>
    <g>
      <path class="cls-9" d="M250.27,46.62c0,13.33-30.33,29.29-69.38,37.69-39.05,8.4-66.81,9.01-69.39-2.98-2.58-11.99,27.85-25.18,66.03-36.91,41.08-12.62,70.16-9.78,72.74,2.2Z"/>
      <path class="cls-8" d="M106.57,89.8s-23.5-48.36,10.05-73.69c31.06-23.45,65.99-19.4,85.26,.3,13.4,13.7,13.4,22.84,13.4,22.84l-108.7,50.55Z"/>
      <ellipse class="cls-12" cx="210.96" cy="71.77" rx="15.89" ry="12.12" transform="translate(99.6 264.78) rotate(-78.81)"/>
      <path class="cls-10" d="M111.14,81.88s59.07-52.07,104.13-42.63v37.45s16.75,6.39,14.62,20.71c-2.13,14.31-27.71,38.06-68.21,32.58l-2.13,3.96s6.39,9.44-3.04,11.27c-9.23,1.79-24.97-27.4-24.97-27.4,0,0-12.79-9.44-20.4-35.93Z"/>
      <path class="cls-7" d="M172.89,101.85s-4.24,9.99,1.55,12.46c6.45,2.75,11.46-9.65,11.46-9.65,0,0-8.48-.65-13.01-2.82Z"/>
      <path class="cls-11" d="M111.14,81.88c2.66,9.26,5.95,16.43,9.11,21.85,6.59-4.43,18.4-14.81,17.07-31.59,0,0,21.81,7,33.28,0,8.23-5.02,3.36-10.04-.06-12.48,4.16,2.42,12.66,6.73,18.23,5.17,7.61-2.13,0-12.48,0-12.48,0,0,15.96,5.19,26.49,3.19,0,0,9.44-.97,9.44-7.76s-9.44-8.53-9.44-8.53c-45.06-9.44-104.13,42.63-104.13,42.63Z"/>
      <ellipse class="cls-10" cx="110.73" cy="98.71" rx="14.38" ry="18.86" transform="translate(-37.53 93.95) rotate(-39.88)"/>
      <path class="cls-8" d="M135.9,67.1c-1.33,0-2.6-.72-3.25-1.98-.92-1.79-.22-4,1.58-4.92,2.98-1.53,73.34-37.41,105.46-26.76,6.5,2.16,11.17,6.05,13.87,11.57,.89,1.81,.14,4-1.68,4.89-1.81,.89-4,.14-4.89-1.68-1.83-3.75-4.98-6.31-9.61-7.85-11.9-3.95-32.84-.71-60.55,9.37-21.32,7.75-39.08,16.85-39.26,16.94-.53,.27-1.11,.41-1.67,.41Z"/>
      <path class="cls-1" d="M142.8,56s27.8-19.18,70.55-23.59"/>
      <line class="cls-1" x1="102.16" y1="92.54" x2="118.29" y2="100"/>
      <path class="cls-1" d="M109.64,96s-4.18,4.92,1.71,10.09"/>
      <path class="cls-9" d="M161.68,129.99l-16.9-6.85s7.31,9.29,14.77,10.81l2.13-3.96Z"/>
      <path class="cls-1" d="M193.5,91.7s6.72-6.56,9.9-1.9c2.13,3.12-3.96,7.92-3.96,7.92"/>
      <path class="cls-1" d="M191.52,74.73s.13,10.66,4.39,15.07"/>
      <path class="cls-1" d="M172.89,101.85s9.74,3.89,17.32,2.55"/>
      <path class="cls-9" d="M175.07,86.52c0,1.81-.85,3.27-1.9,3.27s-1.9-1.47-1.9-3.27,.85-3.27,1.9-3.27,1.9,1.47,1.9,3.27Z"/>
      <path class="cls-9" d="M204.68,80.93c0,1.81-.85,3.27-1.9,3.27s-1.9-1.47-1.9-3.27,.85-3.27,1.9-3.27,1.9,1.47,1.9,3.27Z"/>
      <path class="cls-3" d="M167.72,76.32s2.17-2.63,5.94-3.31"/>
      <path class="cls-3" d="M204.26,67.28s-3.05-1.52-6.77-.62"/>
      <path class="cls-7" d="M196.87,20.92c.43,4.35-6.41,8.59-15.28,9.47s-16.41-1.94-16.84-6.29c-.43-4.35,6.41-8.59,15.28-9.47,8.87-.88,16.41,1.94,16.84,6.29Z"/>
    </g>
    <g>
      <path class="cls-12" d="M27.63,148.64s-13.02-7.54-24.44-5.94l5.71,8.68-8.91,5.48s14.16,2.28,22.61,9.59l5.02-17.81Z"/>
      <path class="cls-6" d="M51.15,118.22l4.11-6.8,78.1,65.54s-26.46,60.5-30.6,72.62c-1.83,10.73-24.58,16.06-27.63,7.08L13.93,204.82s-4.57-4.8-2.74-14.62c1.83-9.82,15.07-68.28,15.07-68.28l3.88,2.97,21.01-6.67Z"/>
      <path class="cls-9" d="M76.96,253s3.03,5.2,12.3,3.15c9.28-2.06,11.26-10.23,11.26-10.23,0,0-15.92-6.8-23.57,7.08Z"/>
      <path class="cls-7" d="M30.14,124.89l72.01,60.71s-25.88,49.82-25.2,67.4c0,0,10.14-8.91,23.57-7.08l25.7-66.45L51.15,118.22l-21.01,6.67Z"/>
      <line class="cls-2" x1="38.68" y1="123.14" x2="52.98" y2="135.17"/>
      <polyline class="cls-2" points="45.83 119.91 114.19 182.54 93.19 245.92"/>
      <polyline class="cls-2" points="90.59 170.91 105.96 184.63 88.85 235.34"/>
      <line class="cls-2" x1="126.23" y1="179.47" x2="102.16" y2="185.6"/>
    </g>
    <g>
      <path class="cls-10" d="M83.35,156.86s-16.44,13.7-20.1,23.52c0,0,2.51,3.31,2.17,6.85-.34,3.54,2.74,8.45,.34,10.5-2.4,2.06-6.17-2.28-7.42-5.94,0,0-1.83,2.06-2.06,9.13-.23,7.08-.8,9.02-2.4,8.91-1.6-.11-4.11-2.74-4.11-2.74,0,0-4.45,.69-6.97-4.22,0,0-4.34-1.6-5.71-6.05-1.37-4.45,.8-20.32,3.65-26.49,0,0,8.67-27.4,27.29-38.37l15.3,24.89Z"/>
      <path class="cls-9" d="M63.65,135.01c4.89,14.33,19.71,21.85,19.71,21.85l-15.3-24.89c-1.54,.91-3,1.93-4.41,3.04Z"/>
      <path class="cls-1" d="M49.78,207.1s-1.6-7.31,0-13.82"/>
      <path class="cls-1" d="M42.82,202.88s0-7.42,.57-10.62"/>
      <line class="cls-1" x1="38.41" y1="199.42" x2="38.94" y2="190.2"/>
      <path class="cls-12" d="M110.22,118.22s-16.59,1.88-42.17,13.75c0,0,1.14,21.01,18.27,32.2l21.87-7.99s8.49-12.33,8.5-24.66c0-9.82-6.47-13.29-6.47-13.29Z"/>
      <line class="cls-1" x1="100.53" y1="158.98" x2="113.27" y2="153.89"/>
      <path class="cls-8" d="M110.22,118.22s3.05,14.51-1.31,38.22l11.67,9.8c3.49-8.61,8.75-28.86,4.57-48.86,0,0-2.2-.81-6.86-.52-6.07,.38-8.07,1.37-8.07,1.37Z"/>
    </g>
  </g>
</svg>