<?xml version="1.0" encoding="UTF-8"?>
<svg id="OBJECTS" xmlns="http://www.w3.org/2000/svg" xmlns:xlink="http://www.w3.org/1999/xlink" viewBox="0 0 312.65 324">
  <defs>
    <style>
      .cls-1 {
        fill: url(#linear-gradient-2);
      }

      .cls-2 {
        stroke-width: 9.66px;
      }

      .cls-2, .cls-3, .cls-4, .cls-5, .cls-6, .cls-7, .cls-8, .cls-9, .cls-10, .cls-11, .cls-12, .cls-13 {
        fill: none;
      }

      .cls-2, .cls-3, .cls-5, .cls-7, .cls-10, .cls-11, .cls-12, .cls-13 {
        stroke-linecap: round;
        stroke-linejoin: round;
      }

      .cls-2, .cls-11 {
        stroke: #fcb28d;
      }

      .cls-3 {
        stroke-width: .68px;
      }

      .cls-3, .cls-10, .cls-13 {
        stroke: #d8654e;
      }

      .cls-14 {
        fill: #fff;
      }

      .cls-15 {
        fill: #f04a4a;
      }

      .cls-16 {
        fill: #fcb28d;
      }

      .cls-4 {
        stroke: #1a1742;
        stroke-width: 2px;
      }

      .cls-4, .cls-6, .cls-9 {
        stroke-miterlimit: 10;
      }

      .cls-17 {
        fill: #b82828;
      }

      .cls-18 {
        fill: #435b7d;
      }

      .cls-19 {
        fill: url(#linear-gradient-6);
      }

      .cls-20 {
        fill: #1a1742;
      }

      .cls-21 {
        fill: #2e3f57;
      }

      .cls-22 {
        fill: #534741;
      }

      .cls-23 {
        fill: url(#linear-gradient-11);
      }

      .cls-23, .cls-24 {
        opacity: .4;
      }

      .cls-5 {
        stroke-width: 9.18px;
      }

      .cls-5, .cls-12 {
        stroke: url(#New_Pattern_Swatch_1);
      }

      .cls-25 {
        fill: #536f99;
      }

      .cls-26 {
        fill: #006837;
      }

      .cls-6 {
        stroke: #fff;
        stroke-width: 11px;
      }

      .cls-27 {
        fill: url(#linear-gradient-10);
      }

      .cls-28 {
        fill: #e1e1e1;
      }

      .cls-29 {
        fill: #84a3d1;
      }

      .cls-7 {
        stroke: #845d42;
        stroke-width: 1.36px;
      }

      .cls-30 {
        fill: #d8654e;
      }

      .cls-31 {
        fill: #008d45;
      }

      .cls-24 {
        fill: url(#linear-gradient-7);
      }

      .cls-32 {
        fill: #ec5a24;
      }

      .cls-33 {
        fill: url(#linear-gradient-5);
      }

      .cls-34 {
        fill: #2d3d54;
      }

      .cls-9 {
        stroke: #435b7d;
        stroke-width: 5px;
      }

      .cls-10 {
        stroke-width: 1.38px;
      }

      .cls-35 {
        fill: #7190bd;
      }

      .cls-36 {
        fill: #ffd699;
      }

      .cls-37 {
        fill: #e03131;
      }

      .cls-38 {
        fill: #262262;
      }

      .cls-39 {
        fill: url(#linear-gradient-9);
      }

      .cls-40 {
        fill: #6783ac;
      }

      .cls-11 {
        stroke-width: 11.04px;
      }

      .cls-41 {
        fill: url(#linear-gradient-3);
      }

      .cls-42 {
        fill: #8e572a;
      }

      .cls-43 {
        fill: #949494;
      }

      .cls-44 {
        fill: #7494c2;
      }

      .cls-45 {
        fill: url(#linear-gradient);
      }

      .cls-12 {
        stroke-width: 10.49px;
      }

      .cls-13 {
        stroke-width: .69px;
      }

      .cls-46 {
        fill: #2d2a59;
      }

      .cls-47 {
        fill: #ed9a5f;
      }

      .cls-48 {
        fill: url(#linear-gradient-4);
      }

      .cls-49 {
        fill: #004a27;
      }

      .cls-50 {
        fill: url(#linear-gradient-8);
      }

      .cls-51 {
        fill: #ffd8a6;
      }
    </style>
    <linearGradient id="linear-gradient" x1="-292.41" y1="-449.01" x2="-277.14" y2="-433.74" gradientTransform="translate(274.29 544.92) rotate(7.11)" gradientUnits="userSpaceOnUse">
      <stop offset="0" stop-color="#d8654e"/>
      <stop offset=".24" stop-color="#de7258"/>
      <stop offset=".68" stop-color="#ee9575"/>
      <stop offset="1" stop-color="#fcb28d"/>
    </linearGradient>
    <linearGradient id="linear-gradient-2" x1="-2168.81" y1="-42.69" x2="-2167.42" y2="-65.31" gradientTransform="translate(-2105.48 222.82) rotate(176.64) scale(1 -1)" gradientUnits="userSpaceOnUse">
      <stop offset="0" stop-color="#d8654e"/>
      <stop offset=".17" stop-color="#db6c53"/>
      <stop offset=".41" stop-color="#e47f63"/>
      <stop offset=".7" stop-color="#f3a07e"/>
      <stop offset=".84" stop-color="#fcb28d"/>
    </linearGradient>
    <linearGradient id="linear-gradient-3" x1="-2118.29" y1="270.05" x2="-2124.91" y2="271.64" gradientTransform="translate(-2109.4 207.56) rotate(168.59) scale(1 -1)" gradientUnits="userSpaceOnUse">
      <stop offset="0" stop-color="#d8654e"/>
      <stop offset=".18" stop-color="#df755b"/>
      <stop offset=".54" stop-color="#f4a17f"/>
      <stop offset=".67" stop-color="#fcb28d"/>
    </linearGradient>
    <pattern id="New_Pattern_Swatch_1" data-name="New Pattern Swatch 1" x="0" y="0" width="29" height="29" patternTransform="translate(-238.3 -262.49)" patternUnits="userSpaceOnUse" viewBox="0 0 29 29">
      <g>
        <rect class="cls-8" y="0" width="29" height="29"/>
        <rect class="cls-16" x="0" y="0" width="29" height="29"/>
      </g>
    </pattern>
    <linearGradient id="linear-gradient-4" x1="-349.26" y1="-677.62" x2="-334.24" y2="-662.59" gradientTransform="translate(382.82 799.52) rotate(10.49)" xlink:href="#linear-gradient"/>
    <linearGradient id="linear-gradient-5" x1="-2290.73" y1="-28.41" x2="-2289.37" y2="-50.66" xlink:href="#linear-gradient-2"/>
    <linearGradient id="linear-gradient-6" x1="-2237.61" y1="301.38" x2="-2244.12" y2="302.95" xlink:href="#linear-gradient-3"/>
    <linearGradient id="linear-gradient-7" x1="286.64" y1="67.44" x2="276.05" y2="59.22" gradientTransform="translate(443.81) rotate(-180) scale(1 -1)" xlink:href="#linear-gradient"/>
    <linearGradient id="linear-gradient-8" x1="-125.96" y1="-717.68" x2="-110.94" y2="-702.66" gradientTransform="translate(275.62 799.52) rotate(169.51) scale(1 -1)" xlink:href="#linear-gradient"/>
    <linearGradient id="linear-gradient-9" x1="-2517.14" y1="-13.85" x2="-2515.77" y2="-36.09" gradientTransform="translate(2763.92 222.82) rotate(3.36)" xlink:href="#linear-gradient-2"/>
    <linearGradient id="linear-gradient-10" x1="-2459.76" y1="347.51" x2="-2466.26" y2="349.07" gradientTransform="translate(2767.84 207.56) rotate(11.41)" xlink:href="#linear-gradient-3"/>
    <linearGradient id="linear-gradient-11" x1="59.77" y1="68.71" x2="49.18" y2="60.49" gradientTransform="translate(214.63)" xlink:href="#linear-gradient"/>
  </defs>
  <g>
    <path class="cls-46" d="M40.57,173.78H23.54c-9.87,0-17.73-8.26-17.25-18.11l2.77-56.58c.45-9.2,8.04-16.42,17.25-16.42h11.49c9.21,0,16.8,7.23,17.25,16.42l2.77,56.58c.48,9.86-7.38,18.11-17.25,18.11Z"/>
    <rect class="cls-17" x="18.53" y="99.62" width="43.46" height="69.7" rx="5.85" ry="5.85"/>
    <g>
      <path class="cls-16" d="M57.63,321.85h29.93c1.87,0,3.39-1.52,3.39-3.39h0c0-1.61-1.13-2.99-2.71-3.32l-31.99-6.55c-2.1-.43-4.07,1.17-4.07,3.32v4.49c0,3.01,2.44,5.45,5.45,5.45Z"/>
      <line class="cls-11" x1="58.46" y1="189.93" x2="58.46" y2="310.69"/>
      <path class="cls-46" d="M65.94,189.93c0-4.13-3.35-7.48-7.48-7.48s-7.48,3.35-7.48,7.48v113.93h14.96v-113.93Z"/>
      <path class="cls-16" d="M34.22,321.85h29.93c1.87,0,3.39-1.52,3.39-3.39h0c0-1.61-1.13-2.99-2.71-3.32l-31.99-6.55c-2.1-.43-4.07,1.17-4.07,3.32v4.49c0,3.01,2.44,5.45,5.45,5.45Z"/>
      <line class="cls-11" x1="35.19" y1="189.93" x2="35.19" y2="310.69"/>
      <path class="cls-2" d="M30.36,92.74C4.84,113.73,.91,154.08,10.38,183.63"/>
      <path class="cls-16" d="M4.09,202.61h0c2.67,1.07,5.69-.23,6.75-2.9l5.01-12.67c1.14-2.89-.49-6.13-3.5-6.92l-1.56-.41c-2.77-.73-5.6,.92-6.33,3.69l-3.45,13.08c-.67,2.53,.65,5.16,3.08,6.13Z"/>
      <path class="cls-2" d="M61.01,92.74c25.52,20.98,29.45,61.34,19.98,90.89"/>
      <path class="cls-16" d="M87.28,202.61h0c-2.67,1.07-5.69-.23-6.75-2.9l-5.01-12.67c-1.14-2.89,.49-6.13,3.5-6.92l1.56-.41c2.77-.73,5.6,.92,6.33,3.69l3.45,13.08c.67,2.53-.65,5.16-3.08,6.13Z"/>
      <g>
        <path class="cls-20" d="M67.78,172.7v9.92c0,3.14-.68,6.12-1.89,8.8-.23,.53-.48,1.04-.76,1.53-1.41,2.57-3.34,4.81-5.64,6.59-.24,.2-.49,.39-.76,.56-1.71,1.22-3.6,2.19-5.64,2.85-.25,.09-.51,.17-.76,.24-1.79,.53-3.68,.82-5.64,.84-.12,.01-.23,.01-.35,.01-.14,0-.28,0-.41-.01-1.96-.03-3.84-.33-5.64-.86-.25-.07-.51-.15-.76-.24-2.04-.68-3.93-1.66-5.64-2.89-.26-.17-.52-.37-.76-.56-2.31-1.81-4.23-4.07-5.64-6.67-.28-.51-.53-1.02-.76-1.55-1.17-2.65-1.82-5.57-1.82-8.64v-9.92h42.84Z"/>
        <path class="cls-40" d="M67.78,98.06v74.64H24.93V98.06c0-2,.28-3.93,.79-5.78,.14-.52,.3-1.04,.48-1.53,.12-.32,.24-.63,.37-.94,.06-.13,.1-.26,.17-.39,.16-.38,.35-.75,.54-1.1,.07-.15,.14-.29,.22-.44,.03-.06,.07-.13,.1-.18,1.14-2.07,2.61-3.92,4.36-5.5,.38-.35,.77-.68,1.17-.99,.23-.18,.47-.37,.71-.54,.01-.01,.03-.02,.05-.03,.31-.22,.61-.44,.94-.63,.87-.56,1.79-1.07,2.76-1.5,.63-.29,1.28-.53,1.93-.75,.25-.09,.51-.17,.76-.24,1.78-.53,3.68-.83,5.64-.86,.14-.01,.28-.01,.41-.01,.12,0,.23,0,.35,.01,1.96,.02,3.85,.31,5.64,.84,.25,.07,.51,.15,.76,.24,.68,.22,1.35,.48,2,.77,.97,.43,1.89,.92,2.76,1.5,.3,.18,.59,.38,.87,.59,.03,.02,.08,.06,.12,.08,.22,.16,.44,.31,.64,.48,.44,.33,.85,.68,1.25,1.05,1.75,1.59,3.23,3.46,4.38,5.55,.1,.18,.21,.38,.31,.58,.16,.31,.31,.63,.45,.95,.02,.05,.03,.08,.06,.13,.07,.14,.13,.28,.18,.41,.13,.31,.25,.62,.37,.94,.18,.49,.35,1.01,.48,1.53,.52,1.84,.79,3.77,.79,5.78Z"/>
      </g>
      <path class="cls-40" d="M34.01,97.19s-.07,.06-.1,.09c-.26,.21-.52,.41-.76,.64-.08,.06-.16,.14-.24,.21-.56,.48-1.12,.98-1.65,1.5-.43,.39-.83,.79-1.23,1.21-.51,.51-.99,1.01-1.46,1.54-.37,.39-.71,.79-1.06,1.2-.26,.3-.51,.59-.76,.89-.63,.77-1.23,1.55-1.82,2.35-.28,.38-.55,.76-.81,1.14-.36,.48-.69,.98-1.01,1.48-.33,.49-.64,.99-.94,1.5-.32,.51-.63,1.02-.92,1.54-.05,.08-.09,.16-.14,.24-.26,.46-.52,.92-.76,1.38-.64,1.2-1.25,2.42-1.82,3.66-.23,.49-.45,.99-.66,1.5-.26,.59-.51,1.17-.74,1.77-.21,.51-.4,1.02-.6,1.54-.61,1.63-1.16,3.31-1.66,5-.06,.21-.13,.41-.17,.62-.09,.29-.17,.59-.24,.87-.2,.67-.36,1.32-.52,2,0,.01-.01,.03-.01,.05-.13,.52-.25,1.02-.36,1.54-.36,1.56-.67,3.14-.92,4.73-.09,.49-.16,1-.24,1.5-.12,.77-.22,1.54-.31,2.32-.06,.51-.13,1.02-.17,1.53-.16,1.48-.28,2.97-.36,4.45-.03,.49-.06,1-.08,1.5-.03,.87-.06,1.74-.07,2.61-.01,.51-.01,1.02-.01,1.53,0,1.39,.03,2.8,.09,4.18,.02,.51,.05,1,.08,1.5,.06,.97,.13,1.93,.21,2.89,.05,.52,.09,1.02,.14,1.53,.14,1.31,.3,2.61,.49,3.9,.07,.51,.14,1,.23,1.5,.16,1.06,.35,2.11,.55,3.15,.09,.52,.2,1.02,.3,1.54,.15,.66,.29,1.31,.44,1.96,.11,.49,.23,.98,.36,1.46H2.5c-.21-.94-.4-1.9-.58-2.86l-.1-.55c-.1-.51-.2-1.02-.28-1.54-.14-.79-.26-1.6-.38-2.4-.03-.24-.07-.49-.1-.75-.08-.49-.14-.99-.2-1.5-.17-1.29-.31-2.59-.41-3.9-.06-.51-.1-1.01-.13-1.53-.08-.96-.14-1.92-.18-2.89-.03-.49-.05-1-.06-1.5-.06-1.39-.08-2.78-.08-4.18,0-.51,0-1.02,.02-1.53,0-.86,.02-1.74,.06-2.61,.02-.49,.05-1,.08-1.5,.07-1.48,.18-2.97,.33-4.45,.03-.51,.09-1.02,.16-1.53,.07-.77,.16-1.55,.28-2.32,.06-.49,.13-1,.21-1.5,.01-.05,.01-.1,.02-.15,.22-1.52,.47-3.01,.76-4.51,0-.02,.01-.05,.01-.07,.12-.52,.22-1.04,.33-1.54,.14-.69,.29-1.37,.46-2.05,.11-.49,.23-1,.37-1.5,.41-1.68,.89-3.36,1.41-5,.15-.52,.32-1.04,.51-1.54,.18-.6,.39-1.19,.6-1.77,.18-.51,.37-1,.55-1.5,.44-1.15,.9-2.29,1.39-3.42,.24-.56,.49-1.13,.76-1.69,.02-.06,.06-.12,.08-.17,.23-.52,.47-1.04,.74-1.54,.23-.51,.48-1,.75-1.5,.25-.49,.52-.99,.79-1.48,1.01-1.86,2.09-3.68,3.28-5.43,.03-.05,.06-.09,.09-.14,.22-.33,.44-.67,.67-.99,.13-.18,.26-.37,.39-.55,.28-.41,.56-.81,.87-1.21,.37-.51,.75-1,1.14-1.5,1.02-1.31,2.09-2.58,3.23-3.8,.24-.28,.49-.54,.76-.81,.39-.43,.79-.84,1.21-1.24,.52-.53,1.05-1.04,1.59-1.53,.33-.32,.68-.63,1.04-.94,.58-.51,1.15-1.01,1.75-1.5h.01s.03-.03,.05-.05c.24-.21,.49-.38,.76-.52,.03-.02,.07-.03,.1-.06,1.75-.95,3.84-.92,5.53,.02,.26,.15,.52,.31,.76,.51,.03,.03,.08,.06,.12,.09,.29,.22,.54,.48,.78,.77,.18,.23,.36,.47,.51,.72,.18,.3,.33,.62,.45,.94,.18,.49,.3,1.01,.33,1.53,.15,1.82-.56,3.66-2.08,4.9Z"/>
      <path class="cls-40" d="M91.37,152.81c0,1.39-.02,2.8-.08,4.18-.01,.51-.02,1-.06,1.5-.05,.97-.1,1.93-.18,2.89-.02,.52-.07,1.02-.12,1.53-.07,.72-.14,1.44-.22,2.15-.06,.59-.13,1.17-.21,1.75-.06,.51-.12,1-.2,1.5-.14,1.06-.3,2.12-.48,3.15-.08,.52-.17,1.04-.28,1.54-.21,1.15-.44,2.29-.68,3.42h-11.82c.29-1.13,.54-2.27,.79-3.42,.02-.11,.05-.24,.07-.36,.08-.39,.16-.78,.23-1.19,.2-1,.38-2,.53-3.01,.01-.05,.01-.09,.02-.14,.09-.49,.16-.99,.23-1.5,.2-1.29,.36-2.59,.49-3.9,.05-.51,.09-1.01,.14-1.53,.08-.96,.15-1.92,.21-2.89,.03-.49,.06-.99,.08-1.5,.06-1.38,.09-2.78,.09-4.18,0-.51-.01-1.01-.01-1.53-.01-.87-.03-1.74-.07-2.61-.02-.49-.05-1-.08-1.5-.08-1.48-.2-2.97-.36-4.45-.05-.51-.11-1.02-.17-1.53-.09-.78-.2-1.55-.31-2.32-.08-.49-.15-1-.24-1.5-.01-.05-.01-.08-.02-.13-.21-1.32-.46-2.65-.76-3.95-.03-.22-.09-.44-.14-.66-.1-.52-.23-1.02-.36-1.54-.16-.69-.33-1.37-.53-2.05-.13-.49-.28-1-.41-1.5-.49-1.69-1.05-3.37-1.66-5-.2-.52-.39-1.04-.6-1.54-.23-.6-.47-1.19-.74-1.77-.21-.51-.43-1-.66-1.5-.18-.39-.37-.78-.55-1.17-.24-.52-.49-1.02-.76-1.53-.45-.86-.91-1.73-1.4-2.58-.3-.52-.6-1.04-.92-1.54-.3-.51-.62-1-.95-1.5-.15-.24-.3-.48-.47-.71-.16-.26-.35-.52-.53-.77-.44-.62-.89-1.24-1.36-1.85-.24-.33-.49-.67-.76-.99-.74-.93-1.52-1.84-2.32-2.73-.48-.53-.97-1.05-1.47-1.54-.4-.43-.82-.83-1.23-1.21-.2-.2-.4-.39-.61-.58-.25-.23-.51-.46-.76-.68-.09-.08-.18-.16-.28-.24-.36-.32-.72-.63-1.1-.94-1.51-1.24-2.22-3.08-2.07-4.9,.03-.52,.15-1.04,.33-1.53,.12-.32,.26-.64,.45-.94,.15-.25,.31-.49,.51-.72,.24-.29,.49-.55,.78-.77,.43-.36,.89-.63,1.38-.85,.24-.1,.49-.2,.76-.26,1.74-.48,3.67-.13,5.18,1.1h.01c.15,.14,.3,.25,.45,.39,.25,.21,.51,.43,.76,.66,.02,.01,.03,.03,.06,.05,.16,.13,.32,.26,.48,.41,.35,.31,.7,.62,1.04,.94,.54,.49,1.07,1,1.59,1.53,.85,.84,1.68,1.71,2.47,2.6,.26,.29,.52,.58,.76,.87,.68,.77,1.33,1.56,1.97,2.37,.39,.49,.77,.99,1.14,1.5,.3,.4,.59,.81,.87,1.21,.37,.51,.72,1.02,1.06,1.54,.21,.3,.4,.61,.6,.92,.26,.39,.52,.79,.76,1.2,.71,1.13,1.38,2.28,2.01,3.45,.28,.49,.54,.99,.79,1.48s.51,.99,.75,1.5c.25,.51,.49,1.02,.74,1.54,.47,1.01,.92,2.02,1.35,3.06,.26,.63,.52,1.28,.76,1.92,.03,.1,.08,.2,.12,.3,.2,.49,.38,1,.56,1.5,.21,.59,.41,1.17,.6,1.77,.18,.52,.35,1.02,.51,1.54,.53,1.66,1,3.32,1.41,5,.14,.49,.25,1,.37,1.5,.16,.68,.32,1.37,.46,2.05,.12,.52,.22,1.04,.32,1.54,.31,1.56,.58,3.14,.81,4.73,.08,.49,.15,1,.21,1.5,.12,.77,.21,1.55,.28,2.32,.07,.51,.12,1.01,.16,1.53,.15,1.48,.26,2.97,.33,4.45,.03,.49,.06,1,.07,1.5,.03,.87,.07,1.74,.07,2.61,.01,.51,.02,1.02,.02,1.53Z"/>
      <path class="cls-20" d="M35.19,182.45c-4.13,0-7.48,3.35-7.48,7.48v113.93h14.96v-113.93c0-4.13-3.35-7.48-7.48-7.48Z"/>
      <g>
        <path class="cls-35" d="M91.48,320.51l-.02-.18c-.22-6.62-6.45-6.75-6.45-6.75,0,0-3.44,0-5.92-.39-2.48-.39-6.06-4.44-8.15-6.62-2.09-2.18-4.44-2.66-5.14-1.09-.7,1.57-3.35,4.75-7.84,5.1-4.49,.35-7.23-3.35-7.45-3.96-.22-.61-.57-.48-.57-.48-2.4,0-2.31,3.14-2.31,3.14v11.24h43.85Z"/>
        <path class="cls-46" d="M47.63,320.51v2.46c0,.57,.46,1.03,1.03,1.03h40.84c2.06-.45,2.03-2.83,1.98-3.49H47.63Z"/>
        <path class="cls-37" d="M47.63,321.06h43.84c.3,0,.55-.24,.55-.55s-.24-.55-.55-.55H47.63c-.3,0-.55,.24-.55,.55s.24,.55,.55,.55"/>
        <path class="cls-37" d="M68.97,309.68l2.87-2.86c.28-.28,.28-.75,0-1.03-.28-.28-.75-.28-1.03,0l-2.87,2.86c-.28,.28-.28,.75,0,1.03s.75,.28,1.03,0"/>
        <path class="cls-37" d="M71,311.71l2.87-2.87c.28-.28,.28-.75,0-1.03-.28-.28-.75-.28-1.03,0l-2.87,2.87c-.28,.28-.28,.75,0,1.03s.75,.28,1.03,0"/>
        <path class="cls-37" d="M73.03,313.74l2.87-2.86c.28-.28,.28-.75,0-1.03-.28-.28-.75-.28-1.03,0l-2.87,2.86c-.28,.28-.28,.75,0,1.03,.28,.28,.75,.28,1.03,0"/>
      </g>
      <g>
        <path class="cls-25" d="M68.12,320.51l-.02-.18c-.22-6.62-6.45-6.75-6.45-6.75,0,0-3.44,0-5.92-.39-2.48-.39-6.06-4.44-8.15-6.62-2.09-2.18-4.44-2.66-5.14-1.09-.7,1.57-3.35,4.75-7.84,5.1-4.49,.35-7.23-3.35-7.45-3.96-.22-.61-.57-.48-.57-.48-2.4,0-2.31,3.14-2.31,3.14v11.24h43.85Z"/>
        <path class="cls-20" d="M24.27,320.51v2.46c0,.57,.46,1.03,1.03,1.03h40.84c2.06-.45,2.03-2.83,1.98-3.49H24.27Z"/>
        <path class="cls-37" d="M24.27,321.06h43.84c.3,0,.55-.24,.55-.55s-.24-.55-.55-.55H24.27c-.3,0-.55,.24-.55,.55s.24,.55,.55,.55"/>
        <path class="cls-37" d="M45.61,309.68l2.87-2.86c.28-.28,.28-.75,0-1.03-.28-.28-.75-.28-1.03,0l-2.87,2.86c-.28,.28-.28,.75,0,1.03,.28,.28,.75,.28,1.03,0"/>
        <path class="cls-37" d="M47.64,311.71l2.87-2.87c.28-.28,.28-.75,0-1.03-.28-.28-.75-.28-1.03,0l-2.87,2.87c-.28,.28-.28,.75,0,1.03s.75,.28,1.03,0"/>
        <path class="cls-37" d="M49.67,313.74l2.87-2.86c.28-.28,.28-.75,0-1.03-.28-.28-.75-.28-1.03,0l-2.87,2.86c-.28,.28-.28,.75,0,1.03,.28,.28,.75,.28,1.03,0"/>
      </g>
      <path class="cls-37" d="M60.75,82.19H31.97c.6-.55,1.23-1.06,1.89-1.53h24.99c.67,.47,1.3,.99,1.9,1.53Z"/>
      <path class="cls-37" d="M1.92,132.71v40.83l-.1-.55c-.1-.51-.2-1.02-.28-1.54-.14-.79-.26-1.6-.38-2.4v-31.82c.22-1.52,.47-3.01,.76-4.51Z"/>
      <path class="cls-37" d="M8.32,112.64v63.77h-.76v-62.08c.24-.56,.49-1.13,.76-1.69Z"/>
      <path class="cls-37" d="M13.96,174.95c.11,.49,.23,.98,.36,1.46h-.36v-1.46Z"/>
      <path class="cls-37" d="M14.71,101.38v26.79c-.09,.29-.17,.59-.24,.87-.2,.67-.36,1.32-.52,2v-28.54s.06-.09,.09-.14c.22-.33,.44-.67,.67-.99Z"/>
      <path class="cls-37" d="M21.11,93.53v19.18c-.26,.46-.52,.92-.76,1.38v-19.75c.24-.28,.49-.54,.76-.81Z"/>
      <path class="cls-37" d="M27.51,87.75v84.95h-.76V88.27c.24-.21,.49-.38,.76-.52Z"/>
      <path class="cls-37" d="M33.9,80.63v92.07h-.76V81.2c.23-.18,.47-.37,.71-.54,.01-.01,.03-.02,.05-.03Z"/>
      <path class="cls-37" d="M40.3,77.51v95.19h-.76V77.75c.25-.09,.51-.17,.76-.24Z"/>
      <path class="cls-37" d="M46.7,76.65v96.05h-.76V76.65c.14-.01,.28-.01,.41-.01,.12,0,.23,0,.35,.01Z"/>
      <path class="cls-37" d="M53.09,77.73v94.97h-.76V77.49c.25,.07,.51,.15,.76,.24Z"/>
      <path class="cls-37" d="M59.49,81.15v91.56h-.76V80.58s.08,.06,.12,.08c.22,.16,.44,.31,.64,.48Z"/>
      <path class="cls-37" d="M65.89,89.27v83.43h-.76V87.74c.1,.18,.21,.38,.31,.58,.16,.31,.31,.63,.45,.95Z"/>
      <path class="cls-37" d="M72.28,95.76v20.81c-.24-.52-.49-1.02-.76-1.53v-20.16c.26,.29,.52,.58,.76,.87Z"/>
      <path class="cls-37" d="M78.68,104.49v32.75c-.21-1.32-.46-2.65-.76-3.95v-30c.26,.39,.52,.79,.76,1.2Z"/>
      <path class="cls-37" d="M78.15,171.45c.2-1,.38-2,.53-3.01v7.97h-.76v-3.77c.08-.39,.16-.78,.23-1.19Z"/>
      <path class="cls-37" d="M85.08,117.45v58.96h-.76v-60.88c.26,.63,.52,1.28,.76,1.92Z"/>
      <path class="cls-37" d="M91.37,152.81c0,1.39-.02,2.8-.08,4.18-.01,.51-.02,1-.06,1.5-.05,.97-.1,1.93-.18,2.89-.02,.52-.07,1.02-.12,1.53-.07,.72-.14,1.44-.22,2.15v-23.86c.07,.51,.12,1.01,.16,1.53,.15,1.48,.26,2.97,.33,4.45,.03,.49,.06,1,.07,1.5,.03,.87,.07,1.74,.07,2.61,.01,.51,.02,1.02,.02,1.53Z"/>
      <path class="cls-37" d="M69.05,92.28H22.32c.52-.53,1.05-1.04,1.59-1.53h43.56c.54,.49,1.07,1,1.59,1.53Z"/>
      <path class="cls-37" d="M77.32,102.37H14.05c.33-.52,.69-1.04,1.06-1.54h61.16c.37,.51,.72,1.02,1.06,1.54Z"/>
      <path class="cls-37" d="M22.17,110.92c-.32,.51-.63,1.02-.92,1.54H8.4c.23-.52,.47-1.04,.74-1.54h13.03Z"/>
      <rect class="cls-37" x="24.93" y="110.92" width="42.84" height="1.54"/>
      <path class="cls-37" d="M82.97,112.46h-12.85c-.3-.52-.6-1.04-.92-1.54h13.04c.25,.51,.49,1.02,.74,1.54Z"/>
      <path class="cls-37" d="M17.14,121.01c-.21,.51-.4,1.02-.6,1.54H4.51c.15-.52,.32-1.04,.51-1.54h12.13Z"/>
      <rect class="cls-37" x="24.93" y="121.01" width="42.84" height="1.54"/>
      <path class="cls-37" d="M86.86,122.55h-12.03c-.2-.52-.39-1.04-.6-1.54h12.13c.18,.52,.35,1.02,.51,1.54Z"/>
      <path class="cls-37" d="M13.94,131.1c-.13,.52-.25,1.02-.36,1.54H1.93c.12-.52,.22-1.04,.33-1.54H13.94Z"/>
      <rect class="cls-37" x="24.93" y="131.1" width="42.84" height="1.54"/>
      <path class="cls-37" d="M89.43,132.64h-11.64c-.1-.52-.23-1.02-.36-1.54h11.68c.12,.52,.22,1.04,.32,1.54Z"/>
      <path class="cls-37" d="M12.11,141.19c-.06,.51-.13,1.02-.17,1.53H.49c.03-.51,.09-1.02,.16-1.53H12.11Z"/>
      <rect class="cls-37" x="24.93" y="141.19" width="42.84" height="1.53"/>
      <path class="cls-37" d="M90.88,142.72h-11.45c-.05-.51-.11-1.02-.17-1.53h11.46c.07,.51,.12,1.01,.16,1.53Z"/>
      <path class="cls-37" d="M11.44,151.28c-.01,.51-.01,1.02-.01,1.53H0c0-.51,0-1.02,.02-1.53H11.44Z"/>
      <rect class="cls-37" x="24.93" y="151.28" width="42.84" height="1.53"/>
      <path class="cls-37" d="M91.37,152.81h-11.42c0-.51-.01-1.01-.01-1.53h11.41c.01,.51,.02,1.02,.02,1.53Z"/>
      <path class="cls-37" d="M11.94,162.9H.45c-.06-.51-.1-1.01-.13-1.53H11.8c.05,.52,.09,1.02,.14,1.53Z"/>
      <rect class="cls-37" x="24.93" y="161.37" width="42.84" height="1.53"/>
      <path class="cls-37" d="M91.05,161.37c-.02,.52-.07,1.02-.12,1.53h-11.5c.05-.51,.09-1.01,.14-1.53h11.48Z"/>
      <path class="cls-37" d="M13.52,172.99H1.82c-.1-.51-.2-1.02-.28-1.54H13.22c.09,.52,.2,1.02,.3,1.54Z"/>
      <rect class="cls-37" x="24.93" y="171.45" width="42.84" height="1.54"/>
      <path class="cls-37" d="M89.83,171.45c-.08,.52-.17,1.04-.28,1.54h-11.7c.1-.52,.21-1.02,.3-1.54h11.68Z"/>
      <path class="cls-47" d="M57.86,80h-23.01c.87-.56,1.79-1.07,2.76-1.5h17.49c.97,.43,1.89,.92,2.76,1.5Z"/>
      <path class="cls-47" d="M66.43,89.81H24.94c.58-.51,1.15-1.01,1.75-1.5h38.75c.18,.36,.36,.71,.51,1.08,.16,.13,.32,.26,.48,.41Z"/>
      <path class="cls-47" d="M75.39,99.62H15.98c.37-.51,.75-1,1.14-1.5h57.13c.39,.49,.77,.99,1.14,1.5Z"/>
      <path class="cls-47" d="M24.13,107.94c-.36,.48-.69,.98-1.01,1.48H9.88c.25-.49,.52-.99,.79-1.48h13.45Z"/>
      <path class="cls-47" d="M81.49,109.43H24.93v-1.48h55.76c.28,.49,.54,.99,.79,1.48Z"/>
      <path class="cls-47" d="M18.53,117.74c-.23,.49-.45,.99-.66,1.5H5.61c.18-.51,.37-1,.55-1.5h12.37Z"/>
      <rect class="cls-47" x="24.93" y="117.74" width="42.84" height="1.5"/>
      <path class="cls-47" d="M85.76,119.24h-12.26c-.21-.51-.43-1-.66-1.5h12.36c.2,.49,.38,1,.56,1.5Z"/>
      <path class="cls-47" d="M14.89,127.56c-.15,.49-.29,1-.41,1.5H2.73c.11-.49,.23-1,.37-1.5H14.89Z"/>
      <rect class="cls-47" x="24.93" y="127.56" width="42.84" height="1.5"/>
      <path class="cls-47" d="M88.64,129.05h-11.75c-.13-.49-.28-1-.41-1.5h11.79c.14,.49,.25,1,.37,1.5Z"/>
      <path class="cls-47" d="M12.67,137.37c-.09,.49-.16,1-.24,1.5H.93c.06-.49,.13-1,.21-1.5H12.67Z"/>
      <rect class="cls-47" x="24.93" y="137.37" width="42.84" height="1.5"/>
      <path class="cls-47" d="M90.44,138.87h-11.49c-.08-.49-.15-1-.24-1.5h11.53c.08,.49,.15,1,.21,1.5Z"/>
      <path class="cls-47" d="M11.59,147.17c-.03,.49-.06,1-.08,1.5H.08c.02-.49,.05-1,.08-1.5H11.59Z"/>
      <rect class="cls-47" x="24.93" y="147.17" width="42.84" height="1.5"/>
      <path class="cls-47" d="M91.28,148.67h-11.41c-.02-.49-.05-1-.08-1.5h11.42c.03,.49,.06,1,.07,1.5Z"/>
      <path class="cls-47" d="M11.6,158.48H.14c-.03-.49-.05-1-.06-1.5H11.52c.02,.51,.05,1,.08,1.5Z"/>
      <rect class="cls-47" x="24.93" y="156.99" width="42.84" height="1.5"/>
      <path class="cls-47" d="M91.29,156.99c-.01,.51-.02,1-.06,1.5h-11.46c.03-.49,.06-.99,.08-1.5h11.44Z"/>
      <path class="cls-47" d="M12.67,168.3H1.06c-.08-.49-.14-.99-.2-1.5H12.44c.07,.51,.14,1,.23,1.5Z"/>
      <rect class="cls-47" x="24.93" y="166.8" width="42.84" height="1.5"/>
      <path class="cls-47" d="M90.51,166.8c-.06,.51-.12,1-.2,1.5h-11.61c.09-.49,.16-.99,.23-1.5h11.57Z"/>
      <g>
        <path class="cls-45" d="M51.52,63.96c.14-2.63-1.88-4.86-4.51-5-2.63-.14-4.86,1.88-5,4.51l-.82,15.94c-.14,2.63,1.88,4.86,4.51,5,2.63,.13,4.86-1.88,5-4.51l.82-15.94Z"/>
        <path class="cls-16" d="M50.05,74.23l4-.81c9.74-1.96,16.04-11.45,14.07-21.18l-4.82-23.9c-1.67-8.27-9.73-13.63-18-11.96l-11.11,2.24c-8.27,1.67-13.63,9.73-11.96,18l4.46,22.09c2.17,10.73,12.62,17.68,23.36,15.52Z"/>
        <path class="cls-13" d="M60.12,41.79c.52,.11,1.08,.11,1.63,0,.56-.11,1.07-.33,1.51-.63"/>
        <path class="cls-13" d="M43.09,45.22c.52,.11,1.08,.11,1.63,0,.56-.11,1.07-.33,1.51-.63"/>
        <path class="cls-10" d="M51.53,59.21c.4,.58,.9,1.08,1.48,1.46s1.23,.66,1.92,.8c.69,.14,1.42,.15,2.15,0,.73-.15,1.4-.44,1.98-.84s1.08-.9,1.46-1.48,.66-1.23,.8-1.92"/>
        <path d="M61.03,40.23h0c.65-.13,1.07-.77,.94-1.42l-.54-2.7c-.13-.65-.77-1.07-1.42-.94-.65,.13-1.07,.76-.94,1.42l.54,2.7c.13,.65,.77,1.07,1.42,.94Z"/>
        <path d="M44.4,43.59h0c.65-.13,1.07-.77,.94-1.42l-.54-2.7c-.13-.65-.76-1.07-1.42-.94-.65,.13-1.07,.77-.94,1.42l.54,2.7c.13,.65,.77,1.07,1.42,.94Z"/>
        <path class="cls-1" d="M57.3,52.19s.08-.02,.12-.04c3.2-1.25,3.21-4.62,2.77-6.23-.09-.32-.39-.54-.73-.52l-3.99,.23-.85-1.46s-2.85-5.44-1.86-12.53c.05-.39-.22-.75-.61-.8-.38-.05-.75,.22-.8,.6-1.05,7.56,1.9,13.18,2.03,13.42l1.08,1.86c.13,.23,.39,.37,.65,.35l3.8-.22c.13,1.02,.12,3.13-2.03,3.97-.36,.14-.55,.55-.4,.92,.13,.33,.47,.5,.8,.44Z"/>
        <g>
          <path class="cls-16" d="M28.52,52.32c.58,2.88-1.28,5.69-4.17,6.27-2.88,.58-5.69-1.28-6.27-4.17s1.28-5.69,4.17-6.27c2.88-.58,5.69,1.28,6.27,4.17Z"/>
          <path class="cls-41" d="M25.58,51.65c-.95-1.26-2.75-1.5-4-.55-1.26,.95-1.5,2.75-.55,4,.95,1.26,2.75,1.5,4,.55,1.26-.95,1.5-2.75,.55-4Z"/>
        </g>
        <path class="cls-22" d="M31.97,35.53s-.46,14.19,2.88,20.71c0,0-3.63-3.19-7.34-10.9,0,0-.17,7.69,2.85,11.88,0,0-6.07-4.25-8.04-10-1.97-5.75-1.97-18.98-1.97-18.98l11.62,7.28Z"/>
        <path class="cls-22" d="M61.93,26.12s6.19,6.89,6.98,12.58c0,0-6.99-9.07-11.3-11.72l4.32-.86Z"/>
      </g>
      <path class="cls-20" d="M48.46,89.06c0,.51-.42,.93-.93,.93s-.93-.42-.93-.93,.42-.93,.93-.93,.93,.42,.93,.93Z"/>
      <circle class="cls-20" cx="47.53" cy="95.21" r=".93"/>
      <circle class="cls-20" cx="47.53" cy="101.35" r=".93"/>
      <path class="cls-20" d="M48.46,107.49c0,.51-.42,.93-.93,.93s-.93-.42-.93-.93,.42-.93,.93-.93,.93,.42,.93,.93Z"/>
    </g>
    <g>
      <path class="cls-15" d="M61.59,23.97l-41.8,13.44-1.37-15.99-.11-1.31c-.13-1.52-.07-3.02,.17-4.48,.18-1.18,.48-2.34,.88-3.45,.32-.85,.69-1.68,1.13-2.48,2.22-4.08,5.94-7.31,10.62-8.82,4.12-1.32,8.41-1.13,12.23,.31,.52,.19,1.03,.42,1.53,.67,.81,.39,1.6,.85,2.36,1.36,.98,.67,1.9,1.43,2.73,2.29,1.04,1.04,1.96,2.23,2.75,3.54l.68,1.12,8.21,13.8Z"/>
      <rect class="cls-37" x="15.17" y="22.37" width="50.77" height="15.23" rx="2.97" ry="2.97" transform="translate(-7.23 13.85) rotate(-17.82)"/>
      <rect class="cls-17" x="38.73" y="22.38" width="3.58" height="15.23" transform="translate(-7.24 13.84) rotate(-17.82)"/>
      <rect class="cls-17" x="45.11" y="20.33" width="3.58" height="15.23" transform="translate(-6.3 15.7) rotate(-17.82)"/>
      <rect class="cls-17" x="51.5" y="18.28" width="3.58" height="15.23" transform="translate(-5.37 17.55) rotate(-17.82)"/>
      <rect class="cls-17" x="57.88" y="16.22" width="3.58" height="15.23" transform="translate(-4.43 19.41) rotate(-17.82)"/>
      <rect class="cls-17" x="19.12" y="28.69" width="3.58" height="15.23" transform="translate(-10.11 8.14) rotate(-17.82)"/>
      <rect class="cls-17" x="25.5" y="26.63" width="3.58" height="15.23" transform="translate(-9.17 10) rotate(-17.82)"/>
      <rect class="cls-17" x="31.89" y="24.58" width="3.58" height="15.23" transform="translate(-8.24 11.85) rotate(-17.82)"/>
      <path class="cls-47" d="M47.24,3.22L19.37,12.18c.32-.85,.69-1.68,1.13-2.48L44.88,1.87c.81,.39,1.6,.85,2.36,1.36Z"/>
      <path class="cls-37" d="M53.39,10.18L18.43,21.42l-.11-1.31c-.13-1.52-.07-3.02,.17-4.48L49.97,5.51c1.04,1.04,1.96,2.23,2.75,3.54l.68,1.12Z"/>
    </g>
    <path class="cls-4" d="M33.58,130.22v7.24c0,5.78-4.68,10.46-10.46,10.46h-2.01"/>
    <path class="cls-17" d="M38.18,81.24v47.87c0,1.9-1.15,3.53-2.78,4.22-.55,.24-1.17,.38-1.82,.38s-1.25-.13-1.81-.37c-1.65-.7-2.8-2.34-2.8-4.23v-47.87c0-1.9,1.15-3.53,2.8-4.25,.55-.23,1.16-.36,1.81-.36s1.27,.14,1.82,.37c.54,.24,1.04,.58,1.44,.98,.83,.83,1.35,1.98,1.35,3.26Z"/>
    <polygon class="cls-20" points="24.47 147.92 18.53 144.49 18.53 151.35 24.47 147.92"/>
    <path class="cls-46" d="M35.39,77v56.33c-.55,.24-1.17,.38-1.82,.38s-1.25-.13-1.81-.37v-56.35c.55-.23,1.16-.36,1.81-.36s1.27,.14,1.82,.37Z"/>
  </g>
  <g>
    <rect class="cls-15" x="139.49" y="97.01" width="3.74" height="77.2" transform="translate(36.48 -29.84) rotate(13.82)"/>
    <rect class="cls-51" x="145.06" y="53.78" width="43.95" height="56.54"/>
    <polygon class="cls-51" points="214.61 110.32 170.66 110.32 170.66 53.78 187.21 51.84 214.61 110.32"/>
    <path class="cls-5" d="M179.83,100.04c24.38,19.85,28.13,58.01,19.08,85.96"/>
    <path class="cls-26" d="M184.91,93.79c-3.45-2.81-8.52-2.29-11.33,1.16-2.81,3.45-2.29,8.52,1.16,11.33,7.18,5.85,12.3,13.59,15.65,22.24l14.18-7.85c-4.53-10.83-11.16-19.96-19.66-26.88Z"/>
    <line class="cls-12" x1="178.42" y1="191.95" x2="178.42" y2="306.16"/>
    <path class="cls-38" d="M184.56,191.95c0-3.39-2.75-6.15-6.15-6.15s-6.15,2.75-6.15,6.15v105.82h12.29v-105.82Z"/>
    <path class="cls-42" d="M166.85,205.41c-11.25,0-20.36-9.12-20.36-20.36V105.07c0-11.25,9.12-20.36,20.36-20.36s20.36,9.12,20.36,20.36v79.97c0,11.25-9.12,20.36-20.36,20.36Z"/>
    <g>
      <path class="cls-38" d="M146.49,185.04c0,11.25,9.12,20.36,20.36,20.36s20.36-9.12,20.36-20.36v-4.5h-40.73v4.5Z"/>
      <rect class="cls-26" x="146.49" y="169.51" width="40.73" height="11.03"/>
      <path class="cls-31" d="M187.21,105.06v64.45h-40.73V105.06c0-11.24,9.12-20.36,20.36-20.36,4.45,0,8.56,1.43,11.91,3.85,1.21,.86,2.31,1.86,3.3,2.97,3.21,3.6,5.15,8.35,5.15,13.54Z"/>
    </g>
    <circle class="cls-31" cx="183.72" cy="109.8" r="10.5" transform="translate(-20.25 44.96) rotate(-13.23)"/>
    <path class="cls-26" d="M168.19,118.68c4.4-1.17,7.24-5.26,6.99-9.63,.28,.57,.51,1.17,.68,1.8,1.34,5.03-1.65,10.2-6.68,11.54-5.03,1.34-10.2-1.65-11.54-6.68-.17-.64-.27-1.27-.3-1.9,1.96,3.91,6.46,6.05,10.85,4.88Z"/>
    <path class="cls-48" d="M174.32,71.08c.28-2.57-1.57-4.89-4.14-5.17-2.57-.28-4.89,1.57-5.17,4.14l-1.73,15.61c-.28,2.57,1.57,4.89,4.14,5.17,2.57,.29,4.89-1.57,5.17-4.14l1.73-15.61Z"/>
    <path class="cls-16" d="M172.72,80.99l3.93-.79c9.58-1.93,15.77-11.26,13.84-20.83l-4.74-23.51c-1.64-8.14-9.57-13.4-17.7-11.76l-10.92,2.2c-8.14,1.64-13.4,9.57-11.76,17.7l4.38,21.72c2.13,10.56,12.42,17.39,22.98,15.26Z"/>
    <path class="cls-3" d="M182.62,49.09c.52,.11,1.06,.11,1.61,0s1.05-.33,1.48-.62"/>
    <path class="cls-3" d="M165.88,52.47c.52,.11,1.06,.11,1.61,0s1.05-.33,1.48-.62"/>
    <path d="M183.52,47.56h0c.64-.13,1.05-.75,.93-1.39l-.54-2.65c-.13-.64-.75-1.05-1.39-.93-.64,.13-1.05,.75-.93,1.39l.54,2.65c.13,.64,.75,1.06,1.39,.93Z"/>
    <path d="M167.16,50.86h0c.64-.13,1.05-.75,.93-1.39l-.54-2.65c-.13-.64-.75-1.05-1.39-.93-.64,.13-1.05,.75-.93,1.39l.54,2.65c.13,.64,.75,1.06,1.39,.93Z"/>
    <path class="cls-33" d="M179.85,59.32s.08-.02,.12-.03c3.15-1.23,3.16-4.55,2.73-6.13-.09-.32-.38-.53-.71-.51l-3.92,.23-.84-1.43s-2.8-5.35-1.83-12.32c.05-.38-.21-.73-.6-.79-.38-.05-.73,.21-.79,.59-1.04,7.44,1.87,12.97,1.99,13.2l1.06,1.83c.13,.23,.38,.36,.64,.34l3.74-.22c.13,1,.12,3.08-1.99,3.91-.36,.14-.54,.55-.4,.9,.13,.32,.46,.5,.79,.43Z"/>
    <g>
      <path class="cls-16" d="M151.55,59.44c.57,2.84-1.26,5.6-4.1,6.17-2.84,.57-5.6-1.26-6.17-4.1-.57-2.84,1.26-5.6,4.1-6.17s5.6,1.26,6.17,4.1Z"/>
      <path class="cls-19" d="M148.65,58.78c-.94-1.24-2.7-1.48-3.94-.54-1.24,.94-1.48,2.7-.54,3.94,.94,1.24,2.7,1.48,3.94,.54,1.24-.94,1.48-2.7,.54-3.94Z"/>
    </g>
    <path class="cls-7" d="M162.62,44.6c-.48-1.71,.51-3.48,2.22-3.96,1.71-.48,3.48,.51,3.96,2.22"/>
    <path class="cls-7" d="M178.89,41.27c-.48-1.71,.51-3.48,2.22-3.96,1.71-.48,3.48,.51,3.96,2.22"/>
    <path class="cls-24" d="M162.5,67.29h0c2.16,0,3.91-1.75,3.91-3.91v-.15c0-2.16-1.75-3.91-3.91-3.91h0c-2.16,0-3.91,1.75-3.91,3.91v.15c0,2.16,1.75,3.91,3.91,3.91Z"/>
    <g>
      <path class="cls-26" d="M212.15,319.27l-.02-.17c-.22-6.57-6.4-6.7-6.4-6.7,0,0-3.41,0-5.88-.39-2.46-.39-6.01-4.41-8.08-6.57-2.08-2.16-4.41-2.64-5.1-1.08s-3.33,4.71-7.78,5.06c-4.45,.35-7.17-3.33-7.39-3.93-.22-.6-.56-.47-.56-.47-2.38,0-2.29,3.11-2.29,3.11v11.15h43.5Z"/>
      <path class="cls-49" d="M168.65,319.27v2.44c0,.56,.46,1.02,1.02,1.02h40.52c2.04-.45,2.01-2.8,1.96-3.46h-43.5Z"/>
    </g>
    <path class="cls-36" d="M163.26,23.8s-4.83,25.86-14.45,32.02h-3.57l-1.22-6.07c-2.5-12.36,5.51-24.39,17.86-26.88,.12-.02,.23-.05,.35-.06,1.04,.69,1.04,.98,1.04,.99Z"/>
    <path class="cls-12" d="M155.7,191.95s-64.37,45.83-9.21,95.59"/>
    <g>
      <path class="cls-26" d="M143.61,323.35l-.15-.09c-5.81-3.08-3.21-8.69-3.21-8.69,0,0,1.5-3.07,2.23-5.45,.73-2.38-1.33-7.33-2.36-10.14-1.03-2.81-.44-5.12,1.27-5.06,1.7,.06,5.69-.92,7.96-4.77,2.26-3.85,.16-7.91-.29-8.37-.45-.46-.18-.71-.18-.71,1.04-2.14,3.8-.69,3.8-.69l10.02,4.89-19.08,39.09Z"/>
      <path class="cls-49" d="M162.69,284.26l.58,.28,1.61,.78c.51,.25,.72,.86,.47,1.37l-17.77,36.41c-1.3,1.64-3.4,.58-3.97,.25l19.08-39.09Z"/>
    </g>
    <path class="cls-38" d="M160.85,188.28c-2.03-2.85-5.98-3.51-8.83-1.48-1.32,.94-32.28,23.34-34.12,55.23-.88,15.22,4.99,29.76,17.41,43.33l8.73-9.21c-9.6-10.76-14.15-21.94-13.51-33.34,1.45-25.8,28.56-45.51,28.84-45.71,2.84-2.03,3.5-5.97,1.48-8.82Z"/>
    <path class="cls-36" d="M167.13,18.83c-11.47,0-20.77,6.35-20.77,14.18,0,3.27,1.63,6.27,4.35,8.66l36.98-10.59c-1.38-6.92-10.05-12.26-20.56-12.26Z"/>
    <path class="cls-15" d="M182.05,91.52l-19.18,77.99-1.38,5.61-3.81-.94,1.15-4.67,19.91-80.96c1.21,.86,2.31,1.86,3.3,2.97Z"/>
    <path class="cls-5" d="M151.57,100.04c-29.76,12.84-45.58,45.02,3.03,51.66"/>
    <path class="cls-16" d="M172.83,145.16h0c-.86-2.6-3.66-4.03-6.25-3.18l-12.26,4.02c-2.8,.92-4.14,4.08-2.87,6.76l.66,1.39c1.17,2.47,4.11,3.54,6.56,2.4l11.6-5.42c2.24-1.05,3.34-3.61,2.56-5.98Z"/>
    <path class="cls-26" d="M154.76,107.43c4.08-1.76,5.97-6.5,4.2-10.59-1.76-4.08-6.5-5.96-10.58-4.2-8.48,3.66-15.72,8.55-21.23,14.05l11.71,11.07c3.9-3.78,9.26-7.46,15.9-10.33Z"/>
    <path class="cls-30" d="M180.18,68.7c2.21-.28,3.68-3.03,3.29-6.14l-7.99,1c.39,3.11,2.5,5.41,4.7,5.13Z"/>
    <g>
      <path class="cls-15" d="M149.73,217.7l-29.51-7.26c-5.6-1.38-8.62-7.46-6.33-12.76l12.55-28.96,37.13,9.13-2.32,31.48c-.42,5.75-5.92,9.75-11.52,8.37Z"/>
      <rect class="cls-43" x="126.77" y="167.4" width="38.06" height="6" transform="translate(44.92 -29.89) rotate(13.82)"/>
      <g>
        <path class="cls-15" d="M141.46,164.66c.44-1.8,2.26-2.9,4.06-2.46,1.8,.44,2.9,2.26,2.46,4.06-.44,1.8-2.26,2.9-4.06,2.46-1.8-.44-2.9-2.26-2.46-4.06Z"/>
        <path class="cls-15" d="M145.79,165.73c.44-1.8,2.26-2.9,4.06-2.46,1.8,.44,2.9,2.26,2.46,4.06-.44,1.8-2.26,2.9-4.06,2.46-1.8-.44-2.9-2.26-2.46-4.06Z"/>
      </g>
    </g>
    <g>
      <path class="cls-40" d="M191.48,184.39h23.85c1.02,0,1.86,.83,1.86,1.86v38.75c0,1.02-.83,1.86-1.86,1.86h-23.85c-1.02,0-1.86-.83-1.86-1.86v-38.75c0-1.02,.83-1.86,1.86-1.86Z" transform="translate(219.41 -83.17) rotate(47.86)"/>
      <rect class="cls-29" x="202.62" y="194.83" width="15.56" height="8.22" transform="translate(216.76 -90.55) rotate(47.86)"/>
    </g>
    <path class="cls-16" d="M204.92,203.95h0c-2.55,1.01-5.44-.22-6.45-2.75l-4.79-11.98c-1.09-2.73,.47-5.79,3.34-6.54l1.49-.39c2.64-.69,5.35,.87,6.05,3.49l3.3,12.37c.64,2.39-.63,4.88-2.94,5.8Z"/>
  </g>
  <g>
    <rect class="cls-32" x="242.56" y="55.05" width="43.95" height="56.54" transform="translate(529.07 166.65) rotate(180)"/>
    <path class="cls-18" d="M294.99,183.52h-28.15c-8.02,0-13.99-6.38-13.37-13.94l6.16-75.16c.36-4.37,5.33-7.81,11.13-7.81h20.34c5.79,0,10.77,3.44,11.13,7.81l6.16,75.16c.62,7.56-5.36,13.94-13.37,13.94Z"/>
    <g>
      <path class="cls-21" d="M279.36,44.84l-23.9-8.15c-4.28-1.46-6.23-6.42-4.09-10.41l8.85-16.48c1.7-3.16,5.43-4.63,8.82-3.47l18.11,6.17c3.39,1.16,5.45,4.6,4.87,8.14l-3.06,18.45c-.74,4.47-5.31,7.2-9.6,5.74Z"/>
      <ellipse class="cls-18" cx="266.85" cy="39.61" rx="23.35" ry="41.26" transform="translate(143.26 279.41) rotate(-71.18)"/>
    </g>
    <g>
      <line class="cls-12" x1="253.16" y1="193.22" x2="253.16" y2="307.43"/>
      <line class="cls-6" x1="253.16" y1="264.08" x2="253.16" y2="314.34"/>
      <g>
        <path class="cls-18" d="M219.43,320.54l.02-.17c.22-6.57,6.4-6.7,6.4-6.7,0,0,3.41,0,5.88-.39,2.46-.39,6.01-4.41,8.08-6.57,2.08-2.16,4.41-2.64,5.1-1.08,.69,1.56,3.33,4.71,7.78,5.06,4.45,.35,7.17-3.33,7.39-3.93,.22-.6,.56-.47,.56-.47,2.38,0,2.29,3.11,2.29,3.11v11.15h-43.5Z"/>
        <path class="cls-34" d="M262.92,320.54v2.44c0,.56-.46,1.02-1.02,1.02h-40.52c-2.04-.45-2.01-2.8-1.96-3.46h43.5Z"/>
      </g>
    </g>
    <g>
      <line class="cls-12" x1="275.78" y1="193.22" x2="275.78" y2="307.43"/>
      <line class="cls-6" x1="275.78" y1="264.08" x2="275.78" y2="314.34"/>
      <g>
        <path class="cls-18" d="M309.51,320.54l-.02-.17c-.22-6.57-6.4-6.7-6.4-6.7,0,0-3.41,0-5.88-.39-2.46-.39-6.01-4.41-8.08-6.57-2.08-2.16-4.41-2.64-5.1-1.08s-3.33,4.71-7.78,5.06c-4.45,.35-7.17-3.33-7.39-3.93-.22-.6-.56-.47-.56-.47-2.38,0-2.29,3.11-2.29,3.11v11.15h43.5Z"/>
        <path class="cls-34" d="M266.01,320.54v2.44c0,.56,.46,1.02,1.02,1.02h40.52c2.04-.45,2.01-2.8,1.96-3.46h-43.5Z"/>
      </g>
    </g>
    <path class="cls-5" d="M250.6,99.58c-31.11,9.08-50.77,39.07-3.34,51.64"/>
    <path class="cls-28" d="M252.86,107.31c4.27-1.25,6.72-5.72,5.47-9.99-1.25-4.27-5.72-6.72-9.99-5.47-8.87,2.59-16.65,6.55-22.79,11.33l10.26,12.42c4.33-3.27,10.11-6.27,17.05-8.29Z"/>
    <polygon class="cls-40" points="285.09 170.78 285.08 225.22 244.36 225.22 244.36 170.78 285.09 170.78"/>
    <g>
      <rect class="cls-18" x="247.73" y="170.78" width="3.92" height="54.44"/>
      <rect class="cls-18" x="254.97" y="170.78" width="3.92" height="54.44"/>
      <rect class="cls-18" x="262.21" y="170.78" width="3.92" height="54.44"/>
      <rect class="cls-18" x="269.44" y="170.78" width="3.92" height="54.44"/>
      <rect class="cls-18" x="276.68" y="170.78" width="3.92" height="54.44"/>
    </g>
    <path class="cls-14" d="M244.36,106.33v64.45h40.73V106.33c0-11.24-9.12-20.36-20.36-20.36-4.45,0-8.56,1.43-11.91,3.85-1.21,.86-2.31,1.86-3.3,2.97-3.21,3.6-5.15,8.35-5.15,13.54Z"/>
    <circle class="cls-14" cx="247.85" cy="111.07" r="10.5" transform="translate(-23.65 103.93) rotate(-22.63)"/>
    <path class="cls-28" d="M263.38,119.95c-4.4-1.17-7.24-5.26-6.99-9.63-.28,.57-.51,1.17-.68,1.8-1.34,5.03,1.65,10.2,6.68,11.54,5.03,1.34,10.2-1.65,11.54-6.68,.17-.64,.27-1.27,.3-1.9-1.96,3.91-6.46,6.05-10.85,4.88Z"/>
    <path class="cls-50" d="M257.25,72.35c-.28-2.57,1.57-4.89,4.14-5.17,2.57-.29,4.89,1.57,5.17,4.14l1.73,15.61c.28,2.57-1.57,4.89-4.14,5.17-2.57,.29-4.89-1.57-5.17-4.14l-1.73-15.61Z"/>
    <path class="cls-16" d="M258.85,82.26l-3.93-.79c-9.58-1.93-15.77-11.26-13.84-20.84l4.74-23.51c1.64-8.14,9.57-13.4,17.7-11.76l10.92,2.2c8.14,1.64,13.4,9.57,11.76,17.7l-4.38,21.72c-2.13,10.56-12.42,17.39-22.98,15.26Z"/>
    <path class="cls-3" d="M248.95,50.36c-.52,.11-1.06,.11-1.61,0-.55-.11-1.05-.33-1.48-.62"/>
    <path class="cls-3" d="M265.7,53.74c-.52,.11-1.06,.11-1.61,0-.55-.11-1.05-.33-1.48-.62"/>
    <path d="M248.05,48.83h0c-.64-.13-1.05-.75-.93-1.39l.54-2.65c.13-.64,.75-1.05,1.39-.93,.64,.13,1.05,.75,.93,1.39l-.54,2.65c-.13,.64-.75,1.06-1.39,.93Z"/>
    <path d="M264.41,52.13h0c-.64-.13-1.05-.75-.93-1.39l.54-2.65c.13-.64,.75-1.05,1.39-.93,.64,.13,1.05,.75,.93,1.39l-.54,2.65c-.13,.64-.75,1.06-1.39,.93Z"/>
    <path class="cls-39" d="M251.73,60.59s-.08-.02-.12-.03c-3.15-1.23-3.16-4.55-2.73-6.13,.09-.32,.38-.53,.71-.51l3.92,.23,.84-1.43s2.8-5.35,1.83-12.32c-.05-.38,.21-.73,.6-.79,.38-.05,.73,.21,.79,.59,1.04,7.44-1.87,12.97-1.99,13.2l-1.06,1.83c-.13,.23-.38,.36-.64,.34l-3.74-.22c-.13,1-.12,3.08,1.99,3.91,.36,.14,.54,.55,.4,.9-.13,.32-.46,.5-.79,.43Z"/>
    <g>
      <circle class="cls-16" cx="285.16" cy="61.75" r="5.24"/>
      <path class="cls-27" d="M282.92,60.05c.94-1.24,2.7-1.48,3.94-.54,1.24,.94,1.48,2.7,.54,3.94-.94,1.24-2.7,1.48-3.94,.54-1.24-.94-1.48-2.7-.54-3.94Z"/>
    </g>
    <path class="cls-7" d="M268.95,45.87c.48-1.71-.51-3.48-2.22-3.96-1.71-.48-3.48,.51-3.96,2.22"/>
    <path class="cls-7" d="M252.68,42.54c.48-1.71-.51-3.48-2.22-3.96-1.71-.48-3.48,.51-3.96,2.22"/>
    <path class="cls-23" d="M269.07,68.56h0c-2.16,0-3.91-1.75-3.91-3.91v-.15c0-2.16,1.75-3.91,3.91-3.91h0c2.16,0,3.91,1.75,3.91,3.91v.15c0,2.16-1.75,3.91-3.91,3.91Z"/>
    <path class="cls-32" d="M268.32,25.07s4.83,25.86,14.45,32.02h3.57l1.22-6.07c2.5-12.36-5.51-24.39-17.86-26.88-.12-.02-.23-.05-.35-.06-1.04,.69-1.04,.98-1.04,.99Z"/>
    <path class="cls-30" d="M251.39,69.97c-2.21-.28-3.68-3.03-3.29-6.14l7.99,1c-.39,3.11-2.5,5.41-4.7,5.13Z"/>
    <path class="cls-32" d="M274.15,26.53c.56,3.86-6.06,8.01-14.79,9.27-8.72,1.26-16.25-.85-16.81-4.71-.56-3.86,6.07-8.01,14.79-9.27s16.25,.85,16.81,4.71Z"/>
    <path class="cls-9" d="M280.86,90.35s-20.11-2.68-10.37,35.61c0,0,5.72,21.6,18.09,33.4"/>
    <g>
      <rect class="cls-40" x="248.7" y="115.82" width="31.16" height="48.01" rx="1.86" ry="1.86"/>
      <rect class="cls-44" x="255.19" y="124.24" width="17.59" height="9.3"/>
    </g>
    <g>
      <rect class="cls-26" x="246.27" y="118.52" width="31.16" height="48.01" rx="1.86" ry="1.86"/>
      <rect class="cls-31" x="252.76" y="126.94" width="17.59" height="9.3"/>
    </g>
    <path class="cls-5" d="M280,101.31c29.76,12.84,45.58,45.02-3.03,51.66"/>
    <path class="cls-16" d="M258.74,146.43h0c.86-2.6,3.66-4.03,6.25-3.18l12.26,4.02c2.8,.92,4.14,4.08,2.87,6.76l-.66,1.39c-1.17,2.47-4.11,3.54-6.56,2.4l-11.6-5.42c-2.24-1.05-3.34-3.61-2.56-5.98Z"/>
    <path class="cls-28" d="M276.81,108.7c-4.08-1.76-5.97-6.5-4.2-10.59,1.76-4.08,6.5-5.96,10.58-4.2,8.48,3.66,15.72,8.55,21.23,14.05l-11.71,11.07c-3.9-3.78-9.26-7.46-15.9-10.33Z"/>
    <path class="cls-16" d="M261.75,146.97h0c-.53-2.69-3.14-4.45-5.81-3.92l-12.66,2.48c-2.89,.57-4.61,3.54-3.68,6.36l.48,1.46c.86,2.59,3.64,4.02,6.22,3.19l12.18-3.95c2.36-.76,3.76-3.17,3.27-5.62Z"/>
  </g>
</svg>