<?xml version="1.0" encoding="UTF-8"?>
<svg id="OBJECTS" xmlns="http://www.w3.org/2000/svg" viewBox="0 0 364.39 367.98">
  <defs>
    <style>
      .cls-1 {
        fill: #46b17b;
      }

      .cls-2 {
        stroke: #070000;
      }

      .cls-2, .cls-3 {
        fill: none;
        stroke-linecap: round;
        stroke-linejoin: round;
        stroke-width: 2px;
      }

      .cls-4 {
        fill: #fbffff;
      }

      .cls-5 {
        fill: #5b6cb1;
      }

      .cls-6 {
        fill: #070000;
      }

      .cls-7 {
        fill: #f8b193;
      }

      .cls-3 {
        stroke: #fbffff;
      }

      .cls-8 {
        fill: #fdce64;
      }

      .cls-9 {
        fill: #94533f;
      }

      .cls-10 {
        fill: #ef7f7e;
      }
    </style>
  </defs>
  <g>
    <g>
      <path class="cls-10" d="M112.72,113.16c-11.36,7.76-37.5,36-32.58,50.61,4.92,14.61,13.25,16.06,27.64,15.88,11.17-.14,39.6,.2,47.29,.35,5.8,.12,11.13-3.59,12.64-9.19,.07-.28,.14-.56,.2-.85,1.03-5.04,5.51-23.91,8.89-39.12,1.97-8.88-.36-15.43-13.29-18.4,0,0-38.98-7.34-50.79,.72Z"/>
      <path class="cls-2" d="M112.72,113.16s13.56-.43,7.5,15.2c-6.05,15.63-17.08,56.91-30.5,47.78"/>
    </g>
    <path class="cls-10" d="M106.14,211.27s-12.5-.04-17.5,10.23c-5,10.27-8.5,13.27-9.25,25.27l39.75,.59-13-36.09Z"/>
    <path class="cls-7" d="M109.82,221.5h0s-13.49,12.74-7.26,25.62l16.57,.25-9.32-25.86Z"/>
    <path class="cls-1" d="M152.39,120.02s-20.75,.6-32.83,19.5c-11.36,17.76-23.33,35-18.67,61.67,4.67,26.67,13,45.67,13,45.67l76,7.33s15.67-8.33,5.67-25.67-13.67-26-13.67-26l31.23-16.46s-13.4-45.21-36.23-58.54l-24.5-7.5Z"/>
    <path class="cls-10" d="M187.13,167.6s-1.08-33.38-10.24-40.08c0,0,10.75,4.88,15.46,13.5,0,0,4.26,11.14-5.22,26.58Z"/>
    <path class="cls-4" d="M152.39,120.02s-6.65,29.6,4.38,34.6c11.03,5,16.12-10.6,16.12-10.6,0,0,5.17,12.17,13,10.83,8.77-1.49,4.17-16.2-9-27.33l-24.5-7.5Z"/>
    <path class="cls-10" d="M135.89,118.85l18.88,34.42s1.64-26.59-6.87-35.59l-12.01,1.17Z"/>
    <path class="cls-10" d="M101.22,162.91s11.48,5.56,24.82,0v11.11s-16.74,3.89-26.78-1.47l1.96-9.64Z"/>
    <path class="cls-2" d="M119.14,188.52s30.1,19.34,57.35,15.16"/>
    <g>
      <path class="cls-6" d="M109.72,77.02s-7.17-.83-15.5,2.33c-8.33,3.17-15.33,17.54-15.33,17.54l-7.79,3.39s-13.21-5.09-15.12-1.09c-1.16,2.42,4.92,7.08,4.92,7.08,0,0-6.37,4.42-5.1,7.33,1.27,2.92,11.52-.58,11.52-.58,0,0-2.5,7.5,1.17,8,3.67,.5,8-10.17,8-10.17l6.75-4.67s14.25,4.08,22.42-.92c8.17-5,11.75-12,11.75-12l-7.67-16.25Z"/>
      <path class="cls-1" d="M71.09,100.28s-2.62,7.66,5.38,10.57l6.75-4.67s-4.58-3.93-4.33-9.3l-7.79,3.39Z"/>
      <path class="cls-9" d="M128.64,68.52s-19-34.5,8-55.75,89.25-17.5,99.95,22.81c0,0,3.3,21.69,3.8,25.69,0,0,15.75,7.25,10.75,30.5-4.6,21.38-47,26.25-69.25,27.25l-5,10s2.75,13.5-4,15-20.5-24-20.5-24l3.5-8.5s-13.5-7.75-19.75-16.5l-7.5-26.5Z"/>
      <path class="cls-6" d="M136.64,12.77c-27,21.25-8,55.75-8,55.75l1.05,3.7h0c11.16-1.82,38.18-9.61,40.95-42.45,0,0,34.46,17.12,65.95,5.81C225.89-4.73,163.64-8.48,136.64,12.77Z"/>
      <path class="cls-9" d="M141.35,73.71c3.86,11.95-.38,24.02-9.46,26.95-9.08,2.93-19.57-4.38-23.43-16.33-3.86-11.95,.38-24.02,9.46-26.95,9.08-2.93,19.57,4.38,23.43,16.33Z"/>
      <path class="cls-2" d="M140.75,92.34c-.79,1.72-1.8,3.25-3.01,4.55"/>
      <line class="cls-2" x1="176.89" y1="129.02" x2="172.89" y2="137.52"/>
      <path class="cls-6" d="M181.89,119.02s-8.25-.5-14.75-3.5c0,0,7.05,8.9,11.4,10.2l3.35-6.7Z"/>
      <line class="cls-2" x1="117.39" y1="69.52" x2="135.14" y2="79.01"/>
      <path class="cls-2" d="M126.26,74.27s-7.37,7,1.87,12.25"/>
      <path class="cls-2" d="M190.39,49.35s2.33-3.83,6.83-4.67"/>
      <path class="cls-2" d="M233.22,48.44s-2.58-3.33-7.33-3.75"/>
      <ellipse class="cls-3" cx="236.72" cy="58.18" rx="15.4" ry="23.47"/>
      <path class="cls-3" d="M214.72,56.6s4.15-1.75,6.64,0"/>
      <line class="cls-3" x1="171.42" y1="57.92" x2="157.19" y2="58.69"/>
      <path class="cls-9" d="M218.64,69.52s6-5.5,9-2-5.25,11.5-5.25,11.5"/>
      <path class="cls-2" d="M218.64,69.52s6-5.5,9-2-5.25,11.5-5.25,11.5"/>
      <path class="cls-2" d="M214.72,56.6s2.23,8.13,6.32,11.15"/>
      <ellipse class="cls-3" cx="193.23" cy="57.92" rx="21.81" ry="23.47"/>
      <path class="cls-2" d="M201.47,84.1s3.42-.5,4.5-4.75"/>
      <path class="cls-2" d="M204.45,82.33s10.85,9.61,21.43,2.61"/>
      <circle class="cls-6" cx="198.55" cy="62.35" r="3"/>
      <circle class="cls-6" cx="230.22" cy="61.18" r="3"/>
    </g>
    <line class="cls-2" x1="127.12" y1="184.57" x2="124.97" y2="152.6"/>
    <path class="cls-2" d="M159.19,172.55l-4.42-19.27s-3.71-10.76-9.38-13.59"/>
    <path class="cls-6" d="M159.19,172.55c1.86,4.97-3.8,11.7-12.66,15.02-8.86,3.32-17.55,1.98-19.41-3-1.87-4.97,3.8-11.7,12.66-15.02,8.86-3.32,17.55-1.98,19.41,3Z"/>
    <path class="cls-6" d="M213.11,186.06c1.06,2.06-4.91,7.23-13.33,11.54-8.42,4.31-16.1,6.14-17.15,4.07-1.06-2.06,4.91-7.23,13.33-11.54,8.42-4.31,16.1-6.14,17.15-4.07Z"/>
    <path class="cls-9" d="M140.14,226.27l-10.65-49.89s2.15-4.23,11.81-7.35c0,0,5.79-2.39,11.31-1.01l11.54,58.24h-24Z"/>
    <path class="cls-4" d="M154.05,175.37l-1.46-7.35c-5.52-1.38-11.31,1.01-11.31,1.01-9.65,3.11-11.81,7.35-11.81,7.35l1.38,6.48c2.85-3.1,10.23-9.2,23.18-7.49Z"/>
    <path class="cls-9" d="M187.13,195.61l13,37.57s-.25,12.84,8.5,13.59l18.51-7.65s2.74,1.53,5.62,.15,2.87-3.25,2.87-3.25c0,0,1.5,2.38,4,1.5s2.12-2.75,2.12-2.75c0,0,3.87,3.23,5.37-.64,1.5-3.86,.62-13.49-2.12-13.99s-6.75,1.35-6.75,1.35c0,0-3-2.35-6.75-1.1,0,0-1.25-3.25-5.25-2.38s-9.02,5.3-9.02,5.3l-11.87-37.09s-9.42,2.72-18.23,9.38Z"/>
    <path class="cls-4" d="M205.37,186.23s-9.42,2.72-18.23,9.38l2.35,6.79c3.11-3.22,9.15-8.68,17.13-12.27l-1.25-3.9Z"/>
    <path class="cls-2" d="M187.13,167.6s.32,19.34-5.24,34.92"/>
    <line class="cls-2" x1="217.24" y1="223.32" x2="211.72" y2="228.02"/>
    <path class="cls-2" d="M212.3,234.6s12.25-4.17,13.42,.58c1.02,4.16-4.45,6.36-4.45,6.36"/>
    <path class="cls-2" d="M231.51,220.39s3.54,7.88,4.12,15.62"/>
    <path class="cls-2" d="M238.26,221.5s3.46,6.6,3.5,13.27"/>
    <path class="cls-2" d="M225.17,234.13s-2.28-2.7-2.45-6.11"/>
    <g>
      <path class="cls-4" d="M138.08,57.1s-2.97-6.53,3.08-8.88c5.58-2.17,10.17,.58,8.83,8.08,0,0,5.25-8.67,10.33-.67,4.32,6.8-2,8.08-5.5,8.08,0,0,8.5,4.75,1.83,10.58-6.26,5.48-9.83-2.17-9.83-2.17,0,0-1.64,6.74-7.42,4.67-5.58-2-6.08-8.5-3.42-9.67,0,0-7.97,.87-6.92-5.75,1.42-8.92,9-4.29,9-4.29Z"/>
      <circle class="cls-8" cx="144.71" cy="62.89" r="6.62"/>
    </g>
  </g>
  <g>
    <polygon class="cls-10" points="182.43 261.02 237.03 232.28 237.03 274.27 181.71 274.27 182.43 261.02"/>
    <path class="cls-4" d="M208.14,269.27s-13.46-32.75-52.35-41.25-73.9,14.09-109.4,1.3L0,292.76l17.89,40.26,172.5,9,130-13.5,34-49v-38s-21.5-.58-45-5.29c-23.5-4.71-76.08-32.21-101.25,33.04Z"/>
    <polygon class="cls-7" points="46.39 229.31 59.89 272.85 17.89 333.02 0 292.76 46.39 229.31"/>
    <line class="cls-2" x1="46.39" y1="229.31" x2="59.89" y2="272.85"/>
    <path class="cls-5" d="M11.39,336.52l44.23-69.5,131.51,13s9.21,14.5,25.99,12.5c16.77-2,22.52-11,22.52-11l126.25-8,1.5,7.33-54.5,64.17-105.41,10s-10.18,15.83-29.2,12.5c-20.25-3.55-23.37-13-23.37-13l-137.86-9.63-1.66-8.37Z"/>
    <path class="cls-8" d="M162.62,330.82s23.92,19.39,52.43,3.14l-6.96,12.67s-26.51,12.92-50.45-5.72l4.99-10.09Z"/>
    <path class="cls-2" d="M13.05,344.89l46.84-68.87,124.62,10.5s10.09,16.04,32.73,13.5c16.33-1.83,22.77-11.5,22.77-11.5l123.37-7.67"/>
    <path class="cls-2" d="M361.89,273.52l-126.25,8s-5.75,9-22.52,11-25.99-12.5-25.99-12.5l-131.51-13L11.39,336.52"/>
    <path class="cls-6" d="M187.13,280.02s6.76-10,21.01-10.75,27.5,12.25,27.5,12.25c0,0-10.2,12.12-25.58,11.19-19.67-1.19-22.93-12.69-22.93-12.69Z"/>
    <line class="cls-2" x1="150.91" y1="354.52" x2="184.51" y2="286.52"/>
    <line class="cls-2" x1="203.48" y1="355.02" x2="240.01" y2="288.52"/>
    <path class="cls-2" d="M217.24,270.48s14.76-29,40.4-31.46c31.25-3,58,15.58,96.75,13.25"/>
    <path class="cls-2" d="M223.94,273.25s6.65-10.73,19.19-17.89"/>
    <path class="cls-2" d="M230.6,277.38s16.69-28.23,64.04-18.11c36.25,7.75,59.75,6.99,59.75,6.99"/>
    <path class="cls-6" d="M246.42,280.84s15.21-9.07,32.71-9.32,40.8,4.66,40.8,4.66l-73.51,4.66Z"/>
    <g>
      <path class="cls-6" d="M252.16,261.07s-1.02-5.72,6.48-8.24l27.18-.4,.7,5.08s-19.71-3.15-34.35,3.55Z"/>
      <path class="cls-8" d="M258.64,252.83s14.17,2.52,12.25,21.59c-1.74,17.35-15,28.35-11,43.85,0,0,7-8.25,13.25-11.25,0,0,2.25,9.75,8.75,12.75,0,0,1.65-12.21,9.61-27,9.14-17,4.5-34.67-5.68-40.33l-27.18,.4Z"/>
    </g>
    <line class="cls-2" x1="17.95" y1="286.52" x2="4.8" y2="303.56"/>
    <path class="cls-2" d="M114.96,242.94c-1.63,.27-3.27,.58-4.93,.91-35.81,7.23-59.13,0-59.13,0l-23.48,30.42"/>
    <path class="cls-2" d="M199.89,271.51c-16.79-20.45-37.66-29.83-62.25-30.36"/>
    <path class="cls-2" d="M156.48,258.65c-10.32-2.82-22.08-4.06-34.34-1.58-39.2,7.96-66.53,1.99-66.53,1.99l-44.22,58.23"/>
    <path class="cls-2" d="M193.3,277.38s-9.75-8.21-24.71-14.52"/>
    <path class="cls-6" d="M175,278.82s-14.09-7.97-29.87-9.58c-18.82-1.93-35.11,3.16-35.11,3.16l64.98,6.42Z"/>
    <line class="cls-2" x1="55.61" y1="267.02" x2="59.89" y2="276.02"/>
  </g>
  <g>
    <path class="cls-9" d="M140.14,226.27s5.84-10,15.05-9.25c9.2,.75,27.7,4.25,29.7,13.75s-1,17.5-5.37,16c0,0-2.12,3.25-5.12,2.5s-3.12-3.38-3.12-3.38c0,0-4.75,1.75-7.37-3.38,0,0-3.12,1.25-7.37-3.5s-6.37-12-6.37-12l-10-.75Z"/>
    <path class="cls-2" d="M140.14,226.27s5.84-10,15.05-9.25c9.2,.75,27.7,4.25,29.7,13.75"/>
    <path class="cls-2" d="M163.89,242.52s-1.37-16.51-6.25-25.26"/>
    <path class="cls-2" d="M171.26,245.89s.08-16.64-5.35-27.23"/>
    <path class="cls-2" d="M179.51,246.77s.61-18.17-4.51-25.27"/>
    <line class="cls-2" x1="150.14" y1="227.02" x2="148.76" y2="223.27"/>
  </g>
</svg>